<svg width="182" height="33" viewBox="0 0 182 33" fill="none" xmlns="http://www.w3.org/2000/svg">
<g clip-path="url(#clip0_2094_4644)">
<path d="M12.8072 32.622C10.0388 32.5359 5.03269 32.2883 4.01378 32.1874C2.34417 32.0216 1.15481 31.335 0.626331 30.233C0.258107 29.4646 0.173957 28.8695 0.057111 26.2101C-0.0125675 24.6234 -0.0189994 18.6041 0.0469272 17.2588C0.0892706 16.4006 0.0962382 16.3661 0.263467 16.2003C0.433911 16.0313 0.449455 16.0287 1.41102 15.9978C2.18498 15.9729 2.39778 15.9473 2.44494 15.8735C2.4771 15.8219 2.48943 15.5557 2.47174 15.2821C2.38759 13.9856 2.33667 11.672 2.38009 11.1343C2.44172 10.3707 2.57519 9.97807 2.89571 9.61671C3.23231 9.2373 3.68629 8.98706 4.2657 8.86113C4.52458 8.80483 4.77221 8.73095 4.81508 8.69694C4.87458 8.65021 4.89334 8.1943 4.89334 6.80317C4.89334 4.69526 4.94479 4.31109 5.33553 3.50501C5.5124 3.13996 5.67052 2.91838 5.90314 2.71116C6.31692 2.34239 7.01263 2.0071 7.52774 1.92793C8.15754 1.83122 12.4454 1.90189 18.6179 2.11072C22.5949 2.24515 26.9482 2.30785 27.0404 2.23187C27.1074 2.17661 27.1294 1.97629 27.1299 1.40401C27.1299 0.988483 27.1518 0.618125 27.1771 0.58093C27.2355 0.494849 28.3396 0.293463 28.4736 0.343943C28.5588 0.376356 28.5733 0.51876 28.5733 1.30571C28.5733 1.96088 28.5953 2.24303 28.6494 2.27597C28.6913 2.30148 29.2171 2.34398 29.8173 2.37055C31.0051 2.42316 31.1208 2.44228 31.2055 2.59904C31.2913 2.75844 31.1128 3.68142 30.9767 3.78079C30.8931 3.8419 30.6685 3.85252 30.0494 3.82489C29.6003 3.8047 29.1179 3.77441 28.9774 3.75741C28.5133 3.70161 28.5245 3.64263 28.4967 6.23992C28.4779 7.99503 28.4902 8.54549 28.5492 8.59384C28.6055 8.64011 28.7754 8.50886 29.1806 8.10554C29.4856 7.80209 29.91 7.44982 30.1234 7.32181C31.7614 6.34142 33.4197 6.7479 34.4113 8.37282C34.7131 8.86699 35.1874 10.163 35.3815 11.0211C35.6253 12.1003 35.6714 12.7268 35.6044 14.0212C35.5717 14.6461 35.5176 15.6923 35.4833 16.3464C35.449 17.0005 35.3772 17.8688 35.3236 18.2769C35.1998 19.2174 34.7216 21.5867 34.5088 22.312C34.1197 23.6404 33.3366 24.8615 32.4662 25.4949C32.0942 25.7658 31.3438 26.0629 30.8947 26.1171C30.1448 26.2074 29.2889 25.8966 28.635 25.2961C28.2083 24.9045 28.077 24.896 28.0604 25.259C28.0486 25.5209 28.0496 25.5087 27.9832 26.1171C27.8749 27.1118 27.5003 28.4445 27.1508 29.0815C26.9455 29.4556 26.5988 29.7675 26.1571 29.9742C25.5622 30.2532 24.9356 30.3249 22.7638 30.3632C21.658 30.3829 20.7115 30.4206 20.6594 30.4472C20.6075 30.4737 20.5121 30.6454 20.4472 30.8281C20.1572 31.6453 19.5119 32.2373 18.5868 32.5343C18.2909 32.6294 17.9666 32.647 16.3254 32.6586C15.2717 32.6661 13.6889 32.6496 12.8083 32.6225L12.8072 32.622ZM17.7731 31.2899C18.4131 31.1767 18.7385 31.0024 18.962 30.6533C19.1866 30.3021 19.2766 29.9014 19.2766 29.2521C19.2766 28.7649 19.2825 28.7447 19.4899 28.539C19.6619 28.3684 19.7526 28.3276 19.9562 28.3276C20.2794 28.3276 20.5683 28.5576 20.6578 28.886C20.6932 29.0167 20.7575 29.1357 20.8004 29.1501C20.8433 29.1644 21.7405 29.1576 22.7937 29.1352C25.665 29.0741 25.8676 29.0008 26.2369 27.8919C26.6545 26.6394 26.6754 26.4444 26.9766 21.0734C27.1085 18.7221 27.1669 3.903 27.0452 3.80523C26.9551 3.73349 25.4335 3.67876 22.3543 3.63732C21.093 3.62032 19.8356 3.59162 19.5591 3.57409C18.6811 3.51776 13.7559 3.35995 10.8599 3.29565C7.86644 3.22923 7.51274 3.2489 7.11233 3.50235C6.3271 4.00024 6.199 4.4843 6.11754 7.25642C6.08377 8.41639 6.09127 8.64698 6.16846 8.72348C6.2317 8.78624 6.60314 8.84732 7.38192 8.92221C7.99941 8.98174 8.92556 9.07528 9.44067 9.12949C10.5952 9.25171 10.5453 9.28727 10.5458 8.34306C10.5464 7.07149 10.7571 6.44503 11.374 5.8786C11.9539 5.34618 12.0869 5.3212 14.3144 5.32598C15.3333 5.32811 16.549 5.36265 17.0153 5.4025C19.8678 5.64746 19.9793 5.66074 20.2708 5.78827C20.9859 6.10071 21.4549 6.61826 21.7802 7.45461C22.1752 8.47007 22.2208 9.37711 22.105 13.9431C22.0718 15.2614 22.0305 17.4192 22.0139 18.7375C21.9796 21.4129 21.9351 21.795 21.5792 22.4374C21.2549 23.0235 20.749 23.3078 19.7413 23.4714C19.5376 23.5044 18.7304 23.5315 17.9473 23.532C17.1643 23.532 16.4787 23.5495 16.4241 23.5703C16.341 23.6016 16.3249 23.7324 16.3249 24.3668C16.3249 25.5066 16.1127 26.1351 15.4475 26.9646C15.0487 27.4614 14.6698 27.7707 14.1413 28.0284L13.7297 28.2292L12.5456 28.2548C11.218 28.2829 9.82118 28.2053 7.68855 27.9848C6.89417 27.9024 5.62228 27.8042 4.86225 27.7659C4.10222 27.7277 3.08491 27.6735 2.60091 27.6448C1.98184 27.6086 1.69616 27.6134 1.63667 27.6617C1.52143 27.7547 1.59808 28.7798 1.75941 29.2973C1.96523 29.9583 2.56661 30.4668 3.51209 30.7782C3.92481 30.9142 4.16653 30.9419 5.45934 31.0013C6.27136 31.0386 7.51483 31.097 8.22288 31.1305C12.5794 31.3383 17.0753 31.4131 17.7742 31.2894L17.7731 31.2899ZM13.5613 26.708C13.861 26.5565 14.4216 25.9508 14.6601 25.5219L14.8488 25.1829L14.8691 22.5054C14.8804 21.033 14.8702 19.3157 14.8467 18.6903C14.8075 17.6562 14.7925 17.5468 14.6832 17.4883C14.6167 17.4533 13.9344 17.4075 13.1668 17.3873L11.7712 17.3502L10.7903 18.3321L9.80942 19.3141L8.59217 19.2705C7.16483 19.219 6.13737 19.1015 5.82488 18.9538C5.67695 18.8837 5.4245 18.6206 5.07504 18.1722C4.65054 17.627 4.50582 17.4846 4.3284 17.4368C4.0529 17.3624 1.54448 17.2147 1.41156 17.2656C1.32472 17.2986 1.31347 17.5999 1.31401 19.8736C1.31454 23.0756 1.41262 26.0884 1.51983 26.191C1.57128 26.2398 2.33828 26.2972 3.85727 26.3647C5.10077 26.4199 6.58492 26.5055 7.15468 26.5544C10.659 26.8562 11.2277 26.8886 12.4261 26.8525C13.1481 26.8307 13.3791 26.8015 13.5619 26.709L13.5613 26.708ZM31.4071 24.4332C32.0948 24.1946 32.5429 23.7185 32.9148 22.8312C33.2107 22.1255 33.6529 20.2663 33.8507 18.8953C34.0827 17.288 34.2521 14.4898 34.2071 13.0137C34.1771 12.0307 34.1508 11.8293 33.9498 11.0323C33.8265 10.5445 33.6829 10.0625 33.6304 9.96157C33.3206 9.36801 32.8194 8.83405 32.3317 8.57842C32.1173 8.46582 31.956 8.43498 31.5813 8.4339C31.1579 8.43283 31.055 8.45727 30.6738 8.65021C30.3281 8.8255 30.1352 8.98867 29.6882 9.48283C28.852 10.4074 28.6098 10.9861 28.546 12.2055C28.5155 12.7916 28.4484 15.9272 28.4136 18.3958C28.4093 18.7041 28.3846 19.6568 28.3584 20.5128L28.3112 22.0697L28.5353 22.524C28.8226 23.1069 29.0675 23.4571 29.4587 23.845C30.0735 24.4545 30.7548 24.6601 31.4071 24.4343V24.4332ZM18.7829 22.1037C19.3232 22.074 19.8249 22.0181 19.8978 21.9794C20.124 21.8593 20.2687 21.4778 20.3389 20.8189C20.3748 20.4788 20.4333 18.6456 20.4681 16.7449C20.5029 14.8443 20.5458 12.925 20.5629 12.4797C20.6745 9.5827 20.675 9.31225 20.5699 8.71445C20.4403 7.97745 20.2108 7.50087 19.8737 7.26759C19.6341 7.1018 19.5553 7.08799 18.1467 6.96205C17.0496 6.86375 16.1437 6.82761 14.6188 6.82123L12.5671 6.81273L12.3967 6.96842C12.029 7.30423 12.0247 7.33824 12.0155 9.98865C12.0081 12.1487 11.9174 14.9649 11.8333 15.6551C11.7813 16.0839 11.7374 16.0728 13.5067 16.0898C15.224 16.1063 15.619 16.1604 15.8141 16.4059C15.9572 16.5866 16.0376 17.4027 16.17 20.0298C16.2231 21.083 16.2782 21.9778 16.2928 22.0192C16.3179 22.0904 16.6282 22.125 17.4558 22.1478C17.6455 22.1531 18.2427 22.133 18.7829 22.1037ZM9.90858 17.3677L10.4724 16.7449L10.5078 16.2933C10.5764 15.4197 10.6156 10.8617 10.555 10.7735C10.5196 10.7214 10.3481 10.6773 10.1284 10.6625C9.60255 10.6279 8.0819 10.4749 7.09142 10.3569C6.62511 10.3011 5.86187 10.2517 5.39556 10.2469C4.62641 10.2384 4.52297 10.2506 4.28285 10.3782C3.99127 10.5322 3.92481 10.6252 3.8637 10.9622C3.81439 11.2321 3.8026 15.8485 3.85084 15.9256C3.86906 15.9548 4.09578 15.9952 4.3536 16.0143C4.61195 16.0335 4.86868 16.0749 4.92443 16.1057C4.98017 16.1365 5.38108 16.5521 5.81577 17.0292L6.60528 17.8964L7.71208 17.9298C8.32097 17.948 8.93739 17.9692 9.08207 17.9766C9.34097 17.9899 9.35435 17.9803 9.90912 17.3672L9.90858 17.3677Z" fill="#F7E001" stroke="#F7E001"/>
<mask id="mask0_2094_4644" style="mask-type:luminance" maskUnits="userSpaceOnUse" x="44" y="6" width="139" height="21">
<path d="M182.028 6.38281H44.6074V26.6221H182.028V6.38281Z" fill="white"/>
</mask>
<g mask="url(#mask0_2094_4644)">
<path d="M44.6444 9.20058C44.6289 9.20426 44.6168 9.20012 44.6074 9.18779V8.77574C44.6228 8.7808 44.6378 8.77988 44.6524 8.77344C44.6496 8.91566 44.6472 9.05789 44.6444 9.20058Z" fill="#F7E001"/>
<path d="M57.6511 26.5802C57.7601 26.589 57.8769 26.5325 57.9758 26.6202H57.6552C57.6414 26.6128 57.6364 26.6041 57.6396 26.595C57.6432 26.5853 57.6469 26.5802 57.6511 26.5802Z" fill="#F7E001"/>
<path d="M58.8926 26.6201C58.9924 26.5343 59.1088 26.5866 59.2182 26.5815C59.2292 26.5917 59.2319 26.6008 59.227 26.6086C59.2224 26.6159 59.2178 26.6196 59.2132 26.6196L58.8926 26.6201Z" fill="#F7E001"/>
<path d="M57.6515 26.5803C57.6538 26.5937 57.6552 26.6069 57.6556 26.6203H57.3809C57.4601 26.5335 57.5609 26.5877 57.6515 26.5803Z" fill="#F7E001"/>
<path d="M59.2119 26.6206C59.2133 26.6078 59.2151 26.595 59.217 26.5821C59.3082 26.5872 59.4071 26.5334 59.4868 26.6206H59.2119Z" fill="#F7E001"/>
<path d="M128.733 16.1212C128.733 17.8207 128.726 19.5196 128.736 21.2191C128.741 22.0871 128.778 22.9552 128.799 23.8232C128.811 24.3876 128.775 24.9501 128.715 25.5107C128.685 25.7979 128.56 25.9567 128.28 25.9888C127.598 26.0668 126.913 26.0971 126.226 26.0847C126.026 26.081 125.929 25.9475 125.907 25.7594C125.851 25.29 125.84 24.8183 125.823 24.3468C125.73 21.6577 125.758 18.9668 125.727 16.2773C125.718 15.5606 125.758 14.8449 125.74 14.1287C125.738 14.0447 125.774 13.9268 125.646 13.9011C125.508 13.8736 125.518 14.0038 125.49 14.0809C125.139 15.0458 124.992 16.057 124.825 17.0623C124.424 19.4655 124.147 21.887 123.719 24.2861C123.632 24.7803 123.518 25.2703 123.4 25.7584C123.312 26.1241 123.139 26.2195 122.767 26.1952C122.288 26.1641 121.809 26.1507 121.328 26.1384C120.893 26.1274 120.722 25.9874 120.653 25.5584C120.482 24.5032 120.459 23.4355 120.384 22.3725C120.279 20.8997 120.255 19.4187 119.967 17.9643C119.77 16.9632 119.464 15.9887 119.21 15.0009C119.207 14.9862 119.201 14.9715 119.196 14.9578C119.135 14.8063 119.046 14.6063 118.897 14.6251C118.778 14.6403 118.847 14.8641 118.847 14.9922C118.853 16.3259 118.866 17.6596 118.878 18.9934C118.896 21.0131 118.916 23.0327 118.936 25.0524C118.939 25.2574 118.972 25.4607 118.939 25.6672C118.909 25.8452 118.821 25.9461 118.64 25.9493C117.931 25.9618 117.222 25.9828 116.513 25.9764C116.131 25.9727 115.946 25.7607 115.942 25.3781C115.922 23.8618 115.902 22.345 115.889 20.8286C115.866 18.3974 115.847 15.9662 115.831 13.5345C115.821 12.1246 115.923 10.7179 115.994 9.31119C116.013 8.96529 116.223 8.77347 116.567 8.75884C117.498 8.71892 118.428 8.74229 119.357 8.78497C119.971 8.8134 120.285 9.08277 120.423 9.68378C120.953 11.998 121.463 14.3168 122.035 16.6209C122.078 16.7912 122.129 16.9577 122.218 17.1114C122.277 17.2119 122.328 17.226 122.395 17.1196C122.491 16.9701 122.553 16.8076 122.598 16.6374C123.247 14.2746 123.894 11.9118 124.544 9.54937C124.698 8.98543 124.809 8.91303 125.396 8.91892C126.335 8.92858 127.271 8.91303 128.208 8.85793C128.683 8.82996 128.823 8.95057 128.811 9.42591C128.771 11.0785 128.719 12.7302 128.679 14.3829C128.666 14.9619 128.677 15.5418 128.677 16.1212H128.733Z" fill="#F7E001"/>
<path d="M141.56 19.1921C141.56 17.1866 141.564 15.1812 141.559 13.1758C141.556 11.9714 141.541 10.7675 141.533 9.56315C141.532 9.17548 141.407 8.81623 141.292 8.4533C141.158 8.03168 141.223 7.93849 141.656 7.89442C142.136 7.84539 142.617 7.87013 143.097 7.87381C143.396 7.87611 143.621 8.02156 143.739 8.30601C143.819 8.49553 143.896 8.68587 143.97 8.87722C144.022 9.01347 144.083 9.04052 144.197 8.92819C144.354 8.77308 144.513 8.61706 144.687 8.48219C146.006 7.46268 148.654 7.41595 149.862 9.18734C150.274 9.79204 150.405 10.4652 150.417 11.1791C150.439 12.4417 150.253 13.6846 150.074 14.9289C149.85 16.4737 149.628 18.0185 149.409 19.5633C149.261 20.6034 149.116 21.644 148.971 22.6845C148.941 22.8956 148.925 23.1071 148.946 23.3213C148.988 23.7508 149.246 24.0385 149.68 24.0535C150.457 24.0811 151.234 24.1008 152.012 24.0729C152.743 24.0463 153.476 24.0664 154.208 24.0499C156.182 24.0054 158.156 23.9531 160.129 23.9017C161.166 23.8746 162.202 23.8439 163.238 23.8145C164.366 23.7829 165.494 23.7471 166.621 23.7214C167.094 23.7104 167.249 23.8535 167.309 24.3229C167.356 24.7005 167.411 25.0781 167.438 25.457C167.476 25.9888 167.223 26.2595 166.691 26.2714C165.959 26.2884 165.227 26.2972 164.495 26.3067C162.978 26.327 161.461 26.3306 159.944 26.3692C158.792 26.3985 157.64 26.3834 156.489 26.3962C154.697 26.4155 152.904 26.4288 151.111 26.4265C150.166 26.4251 149.221 26.3935 148.277 26.3614C147.541 26.3366 147.011 25.9696 146.668 25.3268C146.306 24.6459 146.209 23.9086 146.267 23.1543C146.451 20.7846 146.775 18.43 147.036 16.068C147.175 14.8114 147.329 13.5565 147.467 12.3003C147.509 11.9067 147.517 11.5104 147.446 11.1158C147.337 10.5042 147.047 10.2344 146.428 10.217C145.883 10.2018 145.348 10.2918 144.834 10.4734C144.465 10.6042 144.259 10.8808 144.189 11.2644C144.146 11.5058 144.14 11.7494 144.137 11.993C144.135 12.26 144.137 12.5265 144.137 12.7936C144.131 15.1339 144.125 17.4743 144.117 19.8152C144.109 21.7669 144.1 23.7182 144.09 25.6699C144.09 25.7685 144.083 25.8677 144.071 25.9659C144.022 26.3696 143.854 26.5334 143.447 26.5449C143.035 26.5563 142.624 26.555 142.211 26.5454C141.821 26.5362 141.616 26.3334 141.576 25.9388C141.565 25.8328 141.563 25.726 141.563 25.619C141.562 23.4764 141.562 21.3338 141.562 19.1912L141.56 19.1921Z" fill="#F7E001"/>
<path d="M172.694 11.7555C172.644 11.1072 172.697 10.4608 172.722 9.81385C172.739 9.37153 172.904 9.21927 173.338 9.18532C173.863 9.14448 174.387 9.10455 174.913 9.10593C175.304 9.10685 175.459 9.24632 175.465 9.64089C175.479 10.5631 175.532 11.4825 175.597 12.4024C175.703 13.922 175.807 15.442 175.907 16.9615C175.946 17.5694 175.975 18.1783 176.01 18.7863C176.014 18.8697 176.03 18.9523 176.038 19.0354C176.121 19.8897 176.483 20.0465 177.286 20.1209C177.498 20.1402 177.712 20.1315 177.925 20.0906C178.74 19.9355 179.078 19.5584 179.118 18.7238C179.146 18.121 179.066 17.5218 179.03 16.9217C178.967 15.9334 178.881 14.947 178.819 13.9587C178.735 12.6286 178.619 11.2995 178.62 9.96481C178.62 9.78956 178.627 9.61523 178.656 9.4408C178.694 9.20593 178.824 9.07659 179.059 9.0431C179.461 8.98569 179.866 9.01826 180.269 9.00133C180.483 8.99213 180.696 8.99719 180.91 9.00041C181.21 9.00455 181.311 9.09213 181.331 9.38993C181.381 10.1043 181.428 10.8182 181.501 11.5307C181.622 12.7204 181.735 13.9105 181.846 15.1011C181.921 15.8976 181.972 16.6959 181.98 17.4961C181.991 18.8596 181.987 20.2232 182.007 21.5868C182.013 21.9901 182.018 22.3938 182.028 22.7976C182.04 23.3041 181.953 23.8015 181.85 24.2901C181.619 25.3843 180.833 26.0707 179.679 26.2551C178.811 26.3937 177.938 26.435 177.061 26.4625C175.885 26.4996 174.712 26.4588 173.538 26.4313C173.233 26.4239 172.929 26.4093 172.625 26.3849C172.112 26.3437 171.653 26.1597 171.231 25.8624C169.995 24.9897 169.086 23.884 168.712 22.3888C168.618 22.0125 168.526 21.6354 168.439 21.2574C168.338 20.8211 168.471 20.5916 168.903 20.466C169.497 20.2934 170.107 20.2732 170.718 20.3122C171.073 20.3347 171.3 20.6073 171.346 21.0137C171.461 22.0291 171.873 22.882 172.704 23.5074C173.281 23.9409 173.942 24.1919 174.63 24.3741C175.969 24.7283 177.302 24.6708 178.625 24.2873C179.033 24.1689 179.198 23.9514 179.221 23.5266C179.251 22.9375 179.186 22.3562 179.081 21.7776C179.06 21.6648 179.032 21.5428 178.881 21.6258C178.34 21.9231 177.752 21.9598 177.152 21.9722C176.528 21.9855 175.902 22.0098 175.287 21.8758C174.036 21.6042 173.315 20.7733 173.172 19.5042C172.93 17.3607 172.793 15.2107 172.698 13.0571C172.679 12.6241 172.695 12.1891 172.695 11.7551L172.694 11.7555Z" fill="#F7E001"/>
<path d="M155.224 11.8149C155.224 13.0031 155.224 14.1919 155.224 15.3802C155.224 15.4032 155.226 15.4261 155.227 15.4486C155.241 15.7767 155.331 15.9304 155.531 15.9735C155.724 16.0147 155.936 15.8845 156.065 15.6243C156.322 15.1018 156.456 14.5384 156.599 13.9777C156.963 12.5476 157.225 11.0927 157.65 9.67728C157.726 9.42217 157.807 9.16808 157.952 8.94048C158.156 8.6207 158.436 8.44728 158.826 8.45593C159.291 8.46651 159.755 8.4138 160.221 8.45096C160.281 8.45593 160.343 8.45915 160.403 8.46973C160.94 8.56789 161.067 8.81886 160.822 9.30801C160.399 10.154 160.214 11.0739 159.984 11.9805C159.676 13.189 159.442 14.4168 159.033 15.5991C158.928 15.9042 158.779 16.185 158.573 16.4342C158.304 16.759 158.264 17.1109 158.481 17.4711C158.884 18.1354 159.279 18.8034 159.657 19.4829C159.796 19.7353 160.041 19.8104 160.308 19.8467C161.157 19.9623 162.012 19.9348 162.865 19.9173C163.741 19.8995 164.616 19.8499 165.488 19.7586C165.7 19.7366 165.912 19.7086 166.125 19.6967C166.475 19.6765 166.627 19.7706 166.774 20.0858C166.954 20.4716 167.014 20.8712 166.894 21.2855C166.784 21.6682 166.515 21.8874 166.115 21.9146C164.556 22.021 162.993 22.0673 161.431 22.0343C160.594 22.0164 159.757 21.9678 158.936 21.7719C158.557 21.6815 158.275 21.4847 158.062 21.1626C157.637 20.5203 157.245 19.8591 156.88 19.1819C156.634 18.7263 156.26 18.4648 155.743 18.4015C155.334 18.351 155.16 18.4717 155.09 18.8759C155.034 19.193 155.057 19.5146 155.051 19.8339C155.04 20.3367 155.052 20.8401 155.046 21.3434C155.04 21.9599 154.856 22.1522 154.252 22.2403C153.824 22.3027 153.4 22.2596 152.973 22.2431C152.815 22.2371 152.731 22.1334 152.668 22.004C152.539 21.742 152.538 21.4566 152.532 21.1772C152.502 19.8903 152.485 18.6029 152.457 17.3155C152.414 15.3206 152.372 13.3252 152.317 11.3308C152.3 10.7376 152.289 10.1434 152.234 9.55115C152.19 9.0804 152.364 8.88721 152.833 8.8138C153.293 8.74176 153.755 8.70322 154.222 8.72392C154.833 8.75142 155.159 9.06983 155.168 9.68924C155.179 10.3976 155.17 11.1064 155.17 11.8154L155.224 11.8149Z" fill="#F7E001"/>
<path d="M104.227 14.0559C104.227 16.427 104.223 18.7976 104.229 21.1687C104.23 21.5404 104.218 21.9152 104.304 22.2836C104.371 22.5676 104.541 22.7378 104.828 22.7842C105.174 22.8402 105.523 22.847 105.875 22.8407C106.782 22.8246 107.689 22.8053 108.59 22.9521C108.877 22.9989 109.027 23.1421 109.086 23.4316C109.19 23.9464 109.17 24.4634 109.15 24.9805C109.14 25.2214 108.962 25.3434 108.746 25.3852C108.516 25.4301 108.279 25.464 108.044 25.4673C106.547 25.487 105.056 25.4146 103.587 25.1011C102.512 24.8722 101.964 24.2024 101.88 23.1076C101.761 21.55 101.724 19.9887 101.639 18.4302C101.565 17.0835 101.525 15.736 101.499 14.3881C101.481 13.4512 101.457 12.5143 101.433 11.5779C101.425 11.2806 101.343 11.1976 101.042 11.2048C99.8826 11.2334 98.7226 11.2232 97.5645 11.1934C96.6654 11.1704 95.7672 11.1209 94.869 11.0888C94.6633 11.0815 94.4575 11.103 94.2518 11.1035C93.9561 11.1039 93.8358 11.0021 93.7862 10.7121C93.7127 10.284 93.6677 9.85231 93.6466 9.41827C93.6291 9.07236 93.7191 8.95672 94.069 8.93427C94.4493 8.90989 94.8313 8.91955 95.2125 8.91541C97.097 8.89388 98.9798 8.87282 100.863 8.85074C101.655 8.84108 101.808 8.65534 101.681 7.87668C101.638 7.61384 101.594 7.35 101.572 7.08477C101.544 6.74898 101.649 6.59388 101.972 6.52138C102.585 6.38376 103.213 6.35901 103.837 6.40206C104.274 6.43288 104.434 6.66039 104.397 7.09765C104.365 7.46978 104.332 7.84135 104.296 8.21256C104.259 8.60023 104.394 8.74798 104.786 8.73786C105.983 8.70713 107.179 8.6856 108.377 8.6925C109.193 8.69747 109.353 8.86638 109.311 9.68395C109.3 9.89775 109.279 10.1088 109.234 10.318C109.163 10.6474 108.956 10.8264 108.627 10.8855C108.325 10.9402 108.021 10.9475 107.716 10.9471C106.885 10.9457 106.052 10.925 105.234 11.1127C105.227 11.1145 105.219 11.1145 105.212 11.1159C104.323 11.3209 104.193 11.4839 104.193 12.3858C104.193 12.9424 104.193 13.4993 104.193 14.0559H104.227Z" fill="#F7E001"/>
<path d="M64.054 25.1091C64.0128 24.6144 63.9116 24.1309 63.8044 23.6482C63.7201 23.2697 63.612 23.1977 63.2272 23.2404C63.1214 23.2518 63.0175 23.2785 62.9135 23.3004C61.73 23.5528 60.5524 23.8391 59.3423 23.9418C58.1376 24.0441 56.9376 24.051 55.7554 23.7414C54.1321 23.3165 53.016 22.364 52.574 20.7037C52.5135 20.4761 52.4379 20.2517 52.3642 20.0278C52.2423 19.6576 52.2409 19.6594 52.5827 19.4887C53.5917 18.9854 54.2586 18.2063 54.4697 17.0841C54.8485 15.0709 54.9222 13.0447 54.6214 11.0169C54.4212 9.66847 53.5028 8.7531 52.1681 8.49155C51.6185 8.38373 51.0606 8.39202 50.506 8.37647C49.5381 8.34979 48.5699 8.36819 47.6016 8.39109C46.8701 8.40857 46.1377 8.40489 45.4058 8.4209C45.1086 8.42734 44.7993 8.43562 44.6528 8.77518C44.6093 8.91051 44.6432 9.04951 44.6322 9.18668C44.6478 9.57436 44.6702 9.96203 44.6753 10.3493C44.7036 12.6965 44.6326 15.0443 44.7225 17.391C44.7417 17.893 44.7421 18.3958 44.7568 18.8982C44.7939 20.154 44.8479 21.4088 44.9011 22.6641C44.9464 23.7294 44.9968 24.7934 45.0888 25.8556C45.1259 26.2859 45.2922 26.4487 45.7319 26.4575C46.2811 26.4685 46.8303 26.4625 47.3794 26.4593C47.4637 26.4589 47.5467 26.4469 47.629 26.4309C48.0725 26.3451 48.2387 26.1451 48.2479 25.6936C48.2575 25.2283 48.2135 24.7645 48.2076 24.3006C48.1916 22.982 48.2016 21.663 48.202 20.3439C48.202 20.26 48.202 20.1764 48.2131 20.093C48.2346 19.9328 48.3271 19.8365 48.486 19.8402C49.0045 19.8525 49.4695 19.9783 49.7433 20.4779C50.1725 21.2606 50.582 22.0493 50.8499 22.9082C51.1917 24.0028 51.9011 24.8205 52.8657 25.4238C53.7992 26.0078 54.8284 26.3226 55.9075 26.502C56.3517 26.5759 56.8011 26.5616 57.2449 26.6212H57.3824C57.4721 26.5718 57.5687 26.6098 57.6618 26.5979C57.7666 26.6098 57.8757 26.5713 57.9778 26.6212H58.8934C58.9955 26.5713 59.1045 26.6094 59.2098 26.5979C59.3024 26.6098 59.399 26.5718 59.4889 26.6212H59.6262C59.8635 26.5369 60.1136 26.5533 60.3581 26.5314C61.3759 26.4391 62.3859 26.2959 63.3807 26.062C63.8955 25.9408 64.0989 25.633 64.0549 25.1086L64.054 25.1091ZM51.5778 16.2399C51.5195 16.7317 51.1838 17.0703 50.6961 17.1516C49.9655 17.2736 49.2272 17.3029 48.4892 17.3319C48.1884 17.3437 48.0527 17.2222 48.0372 16.9166C48.0001 16.172 48.0001 15.4246 47.9401 14.6823C47.8466 13.521 47.8691 12.3589 47.8654 11.1967C47.8645 10.8668 47.8659 10.871 48.1925 10.826C48.8988 10.7296 49.6027 10.6994 50.3017 10.8815C50.3163 10.8852 50.3315 10.888 50.3461 10.8916C51.3176 11.1619 51.5883 11.511 51.6038 12.5405C51.6126 13.1117 51.6052 13.683 51.6052 14.2542C51.602 14.9158 51.6556 15.5806 51.5778 16.2399Z" fill="#F7E001"/>
<path d="M139.575 16.5364C139.561 15.6064 139.573 14.6764 139.573 13.7464C139.573 12.8164 139.573 11.8102 139.573 10.8417C139.573 10.3296 139.438 9.85749 139.11 9.46153C138.512 8.74074 137.753 8.30357 136.814 8.17919C135.792 8.04387 134.776 8.08563 133.757 8.19115C133.168 8.25215 132.601 8.38103 132.11 8.74258C131.452 9.22805 131.15 9.91986 130.953 10.6815C130.75 11.4679 130.778 12.2649 130.798 13.0655C130.827 14.2611 130.833 15.4577 130.847 16.6538C130.863 18.1013 130.872 19.5493 130.894 20.9968C130.906 21.7506 130.935 22.5044 130.966 23.2578C130.989 23.8061 131.115 24.3296 131.434 24.7874C131.958 25.5372 132.725 25.9079 133.581 26.1157C134.752 26.4001 135.923 26.3304 137.094 26.0886C138.369 25.8257 139.115 25.0398 139.408 23.7932C139.52 23.3138 139.503 22.8224 139.505 22.3375C139.518 20.4036 139.606 18.4711 139.575 16.5364ZM136.78 13.8147H136.72C136.72 15.5513 136.729 17.2879 136.716 19.0244C136.708 20.1889 136.669 21.3533 136.642 22.5182C136.624 23.3271 136.213 23.7473 135.403 23.7937C135.053 23.8139 134.705 23.8479 134.355 23.7923C133.932 23.7249 133.67 23.4932 133.563 23.077C133.444 22.6077 133.418 22.1292 133.425 21.6488C133.457 19.2804 133.492 16.9125 133.53 14.5446C133.547 13.5169 133.573 12.4897 133.594 11.4619C133.605 10.9228 133.814 10.6718 134.351 10.6214C134.961 10.5641 135.57 10.6081 136.174 10.7054C136.427 10.7462 136.593 10.9119 136.679 11.1527C136.756 11.3702 136.781 11.5959 136.781 11.8267C136.778 12.4897 136.78 13.1522 136.78 13.8147Z" fill="#F7E001"/>
<path d="M75.1645 16.2077C75.1682 15.3567 75.0119 14.546 74.6048 13.7871C73.8523 12.3836 72.42 11.7279 70.914 12.1184C70.308 12.2758 69.7781 12.5919 69.2614 12.9333C69.0251 13.0897 68.9921 13.0746 68.9834 12.7846C68.9632 12.1221 68.9509 11.4596 68.938 10.797C68.9275 10.2484 68.9221 9.70007 68.9124 9.15131C68.9092 8.95912 68.8611 8.77697 68.7896 8.59758C68.7145 8.40807 68.5913 8.33189 68.3843 8.34523C67.8511 8.37964 67.323 8.44891 66.7986 8.54845C66.4266 8.61911 66.2531 8.85223 66.2719 9.23116C66.3703 11.2082 66.4867 13.1847 66.5595 15.1626C66.6305 17.0882 66.6617 19.0156 66.7006 20.9426C66.7281 22.2905 66.7345 23.639 66.8124 24.9851C66.8334 25.3462 66.9644 25.5288 67.2704 25.6119C67.6826 25.7234 67.9552 25.6403 68.1498 25.3279C68.2707 25.1343 68.3701 24.9278 68.4888 24.7323C68.7022 24.3809 68.8799 24.3543 69.1731 24.6397C69.7652 25.2159 70.4583 25.5875 71.2849 25.6816C72.1598 25.7812 72.9962 25.6885 73.6993 25.0916C74.3094 24.5732 74.6085 23.8813 74.7335 23.1091C75.0532 21.1418 75.1334 19.1565 75.1645 17.1675C75.1645 16.8473 75.1636 16.527 75.1645 16.2068V16.2077ZM72.1649 21.8924C72.1497 22.7503 71.4856 23.3733 70.6296 23.3766C69.8028 23.3793 69.1731 22.787 69.1542 21.924C69.1291 20.7972 69.1441 19.669 69.1506 18.5417C69.1547 17.78 69.1652 17.0185 69.1295 16.2573C69.0773 15.1488 69.8042 14.335 70.8389 14.356C71.6473 14.3726 72.1672 14.8942 72.1695 15.6994C72.1727 16.7202 72.1704 17.7406 72.1699 18.7615C72.1699 19.8053 72.1836 20.849 72.1649 21.8924Z" fill="#F7E001"/>
<path d="M86.7095 10.3992C86.4983 9.28709 85.5266 8.40439 84.3106 8.18001C83.6099 8.05057 82.9137 8.13272 82.2139 8.16345C81.2101 8.20797 80.2029 8.20521 79.2063 8.36584C77.7809 8.59565 76.7979 9.53208 76.4989 10.9462C76.356 11.622 76.4549 12.2992 76.4888 12.9731C76.5905 14.9804 76.7137 16.9868 76.8355 18.9936C76.906 20.1561 76.9477 21.3206 77.0645 22.4805C77.1987 23.816 77.9302 24.6571 79.1889 25.053C80.2066 25.3728 81.2551 25.504 82.3865 25.4917C82.9789 25.4962 83.631 25.4412 84.2803 25.3435C85.3558 25.181 86.0896 24.5997 86.4698 23.577C86.6333 23.137 86.7178 22.6796 86.7279 22.2139C86.7582 20.8201 86.7885 19.4258 86.7912 18.0319C86.7968 15.9517 86.7867 13.871 86.7628 11.7908C86.7582 11.3279 86.7958 10.858 86.7095 10.3992ZM83.9524 21.7983C83.879 22.5984 83.5612 22.9407 82.7686 22.9925C82.0835 23.0375 81.3974 23.0077 80.7261 22.8333C79.924 22.6246 79.4843 22.0941 79.4513 21.2615C79.4183 20.4246 79.4024 19.5868 79.3877 18.7495C79.3743 17.9879 79.4339 17.2198 79.3538 16.4661C79.1894 14.9208 79.3236 13.3764 79.2786 11.8326C79.2576 11.12 79.4024 10.6708 80.3417 10.6286C81.0493 10.5969 81.7547 10.5176 82.4637 10.5121C82.5849 10.5112 82.708 10.5121 82.8283 10.5304C83.5915 10.647 83.9304 11.0067 83.9396 11.7866C83.9552 13.2117 83.9442 14.6368 83.9442 16.0618C83.9478 16.0618 83.9524 16.0618 83.957 16.0618C83.957 17.3956 83.9552 18.7293 83.957 20.063C83.9579 20.6411 84.0057 21.2197 83.9524 21.7983Z" fill="#F7E001"/>
<path d="M99.6025 15.4404C99.586 15.0977 99.4785 14.7842 99.2948 14.4961C98.6483 13.4864 97.6959 13.0124 96.5267 12.9945C95.5679 12.9798 94.6082 13.0399 93.6485 13.0628C92.8788 13.0812 92.1092 13.0757 91.3432 13.1683C90.5479 13.2647 89.8067 13.4964 89.2144 14.0671C88.4438 14.8105 88.2078 15.7496 88.2757 16.7801C88.3933 18.5501 88.5788 20.3147 88.7561 22.0793C88.8057 22.572 88.8635 23.0648 89.0876 23.5176C89.578 24.5119 90.4331 25.0023 91.4782 25.1978C93.1525 25.5102 94.8424 25.5217 96.535 25.4189C97.2532 25.3754 97.9282 25.1675 98.4912 24.6862C99.226 24.0571 99.4969 23.2217 99.5483 22.2926C99.6282 20.8703 99.6392 19.4462 99.6512 18.0221C99.6512 17.1614 99.6448 16.3006 99.6034 15.4404H99.6025ZM96.8886 16.6052C96.8004 17.5862 96.8647 18.5704 96.8225 19.5522C96.7894 20.3133 96.8408 21.0759 96.7655 21.8361C96.6911 22.5849 96.2861 22.9694 95.533 23.0088C94.5118 23.0629 93.4914 23.096 92.471 23.0047C92.2672 22.9863 92.0614 22.9593 91.8612 22.9152C91.5113 22.8381 91.3047 22.6133 91.2578 22.2559C91.1605 21.514 91.1697 20.7666 91.1531 20.1491C91.1531 19.5856 91.1862 19.1484 91.1458 18.7176C91.0751 17.972 91.1228 17.2269 91.11 16.4823C91.0999 15.8831 91.301 15.6427 91.886 15.5083C92.5115 15.3642 93.1442 15.4106 93.7761 15.4372C94.5981 15.472 95.421 15.494 96.2439 15.5325C96.6204 15.55 96.7802 15.7092 96.8611 16.0822C96.8996 16.2566 96.9042 16.4309 96.8886 16.6052Z" fill="#F7E001"/>
<path d="M64.5426 18.8231C64.5229 18.4469 64.3919 18.312 64.0168 18.3235C63.6055 18.3359 63.1947 18.3611 62.7838 18.3872C62.5182 18.4042 62.3391 18.5474 62.273 18.8039C62.089 19.5164 61.5723 19.8279 60.8995 19.9293C59.8734 20.0844 59.1759 19.5563 59.0265 18.5331C58.9881 18.2694 58.9712 18.0014 58.912 17.7426C58.8645 17.5339 58.9496 17.4853 59.1273 17.4775C59.4397 17.4637 59.7521 17.4509 60.0631 17.4228C60.8372 17.3526 61.6158 17.3311 62.383 17.1953C63.3756 17.0196 63.8002 16.558 63.9348 15.5605C64.0461 14.7347 64.058 13.9065 64.0388 13.0766C64.0177 12.1617 63.9513 11.2506 63.7525 10.3545C63.4502 8.99142 62.3248 8.14624 60.9297 8.23714C60.3292 8.27614 59.7296 8.333 59.1287 8.36694C58.5227 8.40089 57.9937 8.57568 57.615 9.08452C57.3859 9.39234 57.2013 9.72316 57.0588 10.0783C56.3993 11.7226 56.1786 13.4431 56.1749 15.2004C56.1708 16.63 56.3284 18.0445 56.6169 19.4425C56.9242 20.9322 57.9727 21.8287 59.4956 21.9136C60.2958 21.9582 61.0936 21.8797 61.8929 21.8278C63.5895 21.7181 64.6136 20.1825 64.5426 18.8231ZM58.6954 15.7629C58.6441 14.38 58.4833 12.9986 58.6176 11.6126C58.6322 11.4612 58.6524 11.3102 58.6794 11.1606C58.7573 10.7256 59.0201 10.4601 59.442 10.3435C60.1181 10.1567 60.7409 10.193 61.2379 10.767C61.4028 10.9574 61.4981 11.1675 61.5068 11.4272C61.526 11.998 61.5649 12.5678 61.5535 13.0889C61.5599 13.8703 61.543 14.5989 61.411 15.3224C61.3446 15.6863 61.1623 15.874 60.7868 15.9308C60.2207 16.0162 59.6518 16.0565 59.0825 16.0955C58.8154 16.1139 58.705 16.0221 58.6954 15.7629Z" fill="#F7E001"/>
<path d="M170.31 14.5068C169.794 14.4453 169.276 14.4215 168.758 14.4601C168.515 14.4779 168.342 14.6 168.274 14.8445C168.207 15.0867 168.042 15.2511 167.84 15.3836C167.403 15.6708 166.924 15.786 166.404 15.7309C165.639 15.6497 165.137 15.2409 164.995 14.5706C164.939 14.3086 164.948 14.0402 164.948 13.7737C164.947 13.3773 164.949 13.3658 165.357 13.375C166.408 13.3988 167.46 13.402 168.511 13.3493C169.508 13.2988 170.304 12.6523 170.52 11.7136C170.82 10.4102 169.844 8.87596 168.535 8.59555C168.101 8.50245 167.659 8.47955 167.217 8.46483C166.381 8.43732 165.545 8.37173 164.712 8.54652C163.439 8.81395 162.59 9.7008 162.445 10.9928C162.367 11.6888 162.366 12.3917 162.374 13.1818C162.349 13.6645 162.391 14.2352 162.421 14.806C162.49 16.1645 163.207 17.0546 164.462 17.2785C165.788 17.5152 167.127 17.5758 168.467 17.378C169.71 17.1945 170.64 16.1086 170.616 14.8877C170.612 14.6697 170.528 14.5326 170.31 14.5068ZM165.793 10.4129C166.262 10.2179 166.746 10.1417 167.243 10.2959C167.729 10.4464 168.033 10.8235 168.007 11.2301C167.982 11.6406 167.61 11.9908 167.114 12.0728C166.772 12.1293 166.428 12.0779 166.078 12.1105C165.819 12.1105 165.551 12.1183 165.284 12.1082C164.99 12.0972 164.924 12.0215 164.922 11.732C164.918 11.1029 165.21 10.6543 165.792 10.412L165.793 10.4129Z" fill="#F7E001"/>
</g>
</g>
<defs>
<clipPath id="clip0_2094_4644">
<rect width="182" height="33" fill="white"/>
</clipPath>
</defs>
</svg>
