<svg width="182" height="33" viewBox="0 0 182 33" fill="none" xmlns="http://www.w3.org/2000/svg">
<g clip-path="url(#clip0_221_332)">
<path d="M12.8072 32.6238C10.0388 32.5378 5.03269 32.2902 4.01378 32.1892C2.34417 32.0234 1.15481 31.3369 0.626331 30.2349C0.258107 29.4665 0.173957 28.8714 0.057111 26.2119C-0.0125675 24.6253 -0.0189994 18.606 0.0469272 17.2606C0.0892706 16.4025 0.0962382 16.3679 0.263467 16.2021C0.433911 16.0331 0.449455 16.0305 1.41102 15.9997C2.18498 15.9747 2.39778 15.9492 2.44494 15.8754C2.4771 15.8238 2.48943 15.5576 2.47174 15.284C2.38759 13.9874 2.33667 11.6738 2.38009 11.1361C2.44172 10.3726 2.57519 9.9799 2.89571 9.61854C3.23231 9.23913 3.68629 8.98889 4.2657 8.86296C4.52458 8.80666 4.77221 8.73278 4.81508 8.69878C4.87458 8.65204 4.89334 8.19613 4.89334 6.805C4.89334 4.69709 4.94479 4.31292 5.33553 3.50684C5.5124 3.14179 5.67052 2.92021 5.90314 2.71299C6.31692 2.34423 7.01263 2.00893 7.52774 1.92976C8.15754 1.83305 12.4454 1.90372 18.6179 2.11255C22.5949 2.24698 26.9482 2.30969 27.0404 2.2337C27.1074 2.17844 27.1294 1.97812 27.1299 1.40584C27.1299 0.990314 27.1518 0.619956 27.1771 0.582761C27.2355 0.49668 28.3396 0.295294 28.4736 0.345774C28.5588 0.378187 28.5733 0.520591 28.5733 1.30754C28.5733 1.96271 28.5953 2.24486 28.6494 2.27781C28.6913 2.30331 29.2171 2.34581 29.8173 2.37238C31.0051 2.42499 31.1208 2.44412 31.2055 2.60087C31.2913 2.76028 31.1128 3.68326 30.9767 3.78262C30.8931 3.84373 30.6685 3.85435 30.0494 3.82672C29.6003 3.80653 29.1179 3.77624 28.9774 3.75924C28.5133 3.70344 28.5245 3.64447 28.4967 6.24175C28.4779 7.99686 28.4902 8.54732 28.5492 8.59567C28.6055 8.64194 28.7754 8.51069 29.1806 8.10737C29.4856 7.80393 29.91 7.45165 30.1234 7.32364C31.7614 6.34325 33.4197 6.74973 34.4113 8.37465C34.7131 8.86882 35.1874 10.1648 35.3815 11.023C35.6253 12.1021 35.6714 12.7286 35.6044 14.023C35.5717 14.6479 35.5176 15.6941 35.4833 16.3482C35.449 17.0023 35.3772 17.8706 35.3236 18.2787C35.1998 19.2192 34.7216 21.5885 34.5088 22.3139C34.1197 23.6423 33.3366 24.8633 32.4662 25.4967C32.0942 25.7677 31.3438 26.0647 30.8947 26.1189C30.1448 26.2092 29.2889 25.8984 28.635 25.298C28.2083 24.9064 28.077 24.8979 28.0604 25.2608C28.0486 25.5227 28.0496 25.5105 27.9832 26.1189C27.8749 27.1137 27.5003 28.4463 27.1508 29.0834C26.9455 29.4574 26.5988 29.7694 26.1571 29.9761C25.5622 30.2551 24.9356 30.3268 22.7638 30.365C21.658 30.3847 20.7115 30.4224 20.6594 30.449C20.6075 30.4755 20.5121 30.6472 20.4472 30.83C20.1572 31.6472 19.5119 32.2391 18.5868 32.5362C18.2909 32.6312 17.9666 32.6488 16.3254 32.6605C15.2717 32.6679 13.6889 32.6514 12.8083 32.6244L12.8072 32.6238ZM17.7731 31.2917C18.4131 31.1785 18.7385 31.0042 18.962 30.6551C19.1866 30.3039 19.2766 29.9033 19.2766 29.2539C19.2766 28.7667 19.2825 28.7465 19.4899 28.5408C19.6619 28.3703 19.7526 28.3294 19.9562 28.3294C20.2794 28.3294 20.5683 28.5594 20.6578 28.8879C20.6932 29.0186 20.7575 29.1376 20.8004 29.1519C20.8433 29.1663 21.7405 29.1594 22.7937 29.137C25.665 29.076 25.8676 29.0026 26.2369 27.8937C26.6545 26.6412 26.6754 26.4462 26.9766 21.0752C27.1085 18.724 27.1669 3.90483 27.0452 3.80706C26.9551 3.73532 25.4335 3.6806 22.3543 3.63915C21.093 3.62215 19.8356 3.59345 19.5591 3.57592C18.6811 3.51959 13.7559 3.36178 10.8599 3.29748C7.86644 3.23106 7.51274 3.25073 7.11233 3.50418C6.3271 4.00207 6.199 4.48614 6.11754 7.25825C6.08377 8.41823 6.09127 8.64881 6.16846 8.72531C6.2317 8.78807 6.60314 8.84915 7.38192 8.92404C7.99941 8.98357 8.92556 9.07711 9.44067 9.13132C10.5952 9.25354 10.5453 9.2891 10.5458 8.34489C10.5464 7.07332 10.7571 6.44686 11.374 5.88043C11.9539 5.34801 12.0869 5.32303 14.3144 5.32781C15.3333 5.32994 16.549 5.36448 17.0153 5.40433C19.8678 5.64929 19.9793 5.66257 20.2708 5.7901C20.9859 6.10254 21.4549 6.62009 21.7802 7.45644C22.1752 8.4719 22.2208 9.37894 22.105 13.9449C22.0718 15.2632 22.0305 17.4211 22.0139 18.7394C21.9796 21.4148 21.9351 21.7968 21.5792 22.4393C21.2549 23.0253 20.749 23.3096 19.7413 23.4732C19.5376 23.5062 18.7304 23.5333 17.9473 23.5338C17.1643 23.5338 16.4787 23.5514 16.4241 23.5721C16.341 23.6035 16.3249 23.7342 16.3249 24.3686C16.3249 25.5084 16.1127 26.137 15.4475 26.9664C15.0487 27.4632 14.6698 27.7725 14.1413 28.0303L13.7297 28.2311L12.5456 28.2566C11.218 28.2847 9.82118 28.2072 7.68855 27.9866C6.89417 27.9043 5.62228 27.806 4.86225 27.7677C4.10222 27.7295 3.08491 27.6753 2.60091 27.6466C1.98184 27.6104 1.69616 27.6152 1.63667 27.6636C1.52143 27.7566 1.59808 28.7816 1.75941 29.2991C1.96523 29.9601 2.56661 30.4687 3.51209 30.78C3.92481 30.916 4.16653 30.9437 5.45934 31.0032C6.27136 31.0404 7.51483 31.0989 8.22288 31.1323C12.5794 31.3401 17.0753 31.415 17.7742 31.2912L17.7731 31.2917ZM13.5613 26.7098C13.861 26.5583 14.4216 25.9526 14.6601 25.5238L14.8488 25.1848L14.8691 22.5073C14.8804 21.0348 14.8702 19.3175 14.8467 18.6921C14.8075 17.6581 14.7925 17.5486 14.6832 17.4902C14.6167 17.4551 13.9344 17.4094 13.1668 17.3892L11.7712 17.352L10.7903 18.334L9.80942 19.3159L8.59217 19.2723C7.16483 19.2208 6.13737 19.1034 5.82488 18.9556C5.67695 18.8855 5.4245 18.6225 5.07504 18.174C4.65054 17.6288 4.50582 17.4864 4.3284 17.4386C4.0529 17.3642 1.54448 17.2165 1.41156 17.2675C1.32472 17.3005 1.31347 17.6018 1.31401 19.8755C1.31454 23.0774 1.41262 26.0902 1.51983 26.1928C1.57128 26.2416 2.33828 26.2991 3.85727 26.3666C5.10077 26.4218 6.58492 26.5074 7.15468 26.5563C10.659 26.858 11.2277 26.8905 12.4261 26.8543C13.1481 26.8326 13.3791 26.8033 13.5619 26.7109L13.5613 26.7098ZM31.4071 24.435C32.0948 24.1964 32.5429 23.7203 32.9148 22.833C33.2107 22.1273 33.6529 20.2681 33.8507 18.8972C34.0827 17.2898 34.2521 14.4917 34.2071 13.0156C34.1771 12.0325 34.1508 11.8312 33.9498 11.0341C33.8265 10.5463 33.6829 10.0644 33.6304 9.9634C33.3206 9.36985 32.8194 8.83589 32.3317 8.58025C32.1173 8.46766 31.956 8.43681 31.5813 8.43573C31.1579 8.43466 31.055 8.4591 30.6738 8.65204C30.3281 8.82733 30.1352 8.9905 29.6882 9.48466C28.852 10.4092 28.6098 10.9879 28.546 12.2073C28.5155 12.7934 28.4484 15.929 28.4136 18.3977C28.4093 18.7059 28.3846 19.6586 28.3584 20.5147L28.3112 22.0716L28.5353 22.5259C28.8226 23.1088 29.0675 23.4589 29.4587 23.8468C30.0735 24.4563 30.7548 24.6619 31.4071 24.4361V24.435ZM18.7829 22.1056C19.3232 22.0758 19.8249 22.02 19.8978 21.9812C20.124 21.8611 20.2687 21.4796 20.3389 20.8207C20.3748 20.4807 20.4333 18.6475 20.4681 16.7468C20.5029 14.8461 20.5458 12.9268 20.5629 12.4816C20.6745 9.58453 20.675 9.31409 20.5699 8.71628C20.4403 7.97929 20.2108 7.5027 19.8737 7.26943C19.6341 7.10363 19.5553 7.08982 18.1467 6.96388C17.0496 6.86558 16.1437 6.82944 14.6188 6.82306L12.5671 6.81457L12.3967 6.97026C12.029 7.30606 12.0247 7.34007 12.0155 9.99048C12.0081 12.1505 11.9174 14.9667 11.8333 15.657C11.7813 16.0857 11.7374 16.0746 13.5067 16.0916C15.224 16.1081 15.619 16.1622 15.8141 16.4078C15.9572 16.5885 16.0376 17.4046 16.17 20.0316C16.2231 21.0848 16.2782 21.9796 16.2928 22.0211C16.3179 22.0922 16.6282 22.1268 17.4558 22.1496C17.6455 22.1549 18.2427 22.1348 18.7829 22.1056ZM9.90858 17.3695L10.4724 16.7468L10.5078 16.2951C10.5764 15.4215 10.6156 10.8635 10.555 10.7754C10.5196 10.7232 10.3481 10.6791 10.1284 10.6643C9.60255 10.6298 8.0819 10.4767 7.09142 10.3588C6.62511 10.3029 5.86187 10.2535 5.39556 10.2487C4.62641 10.2403 4.52297 10.2524 4.28285 10.38C3.99127 10.5341 3.92481 10.6271 3.8637 10.964C3.81439 11.2339 3.8026 15.8504 3.85084 15.9274C3.86906 15.9566 4.09578 15.997 4.3536 16.0162C4.61195 16.0353 4.86868 16.0767 4.92443 16.1076C4.98017 16.1383 5.38108 16.5539 5.81577 17.031L6.60528 17.8982L7.71208 17.9317C8.32097 17.9498 8.93739 17.971 9.08207 17.9785C9.34097 17.9917 9.35435 17.9822 9.90912 17.369L9.90858 17.3695Z" fill="#050505" stroke="#050505"/>
<mask id="mask0_221_332" style="mask-type:luminance" maskUnits="userSpaceOnUse" x="44" y="6" width="139" height="21">
<path d="M182.029 6.38037H44.6079V26.6196H182.029V6.38037Z" fill="white"/>
</mask>
<g mask="url(#mask0_221_332)">
<path d="M44.6449 9.19936C44.6294 9.20304 44.6173 9.1989 44.6079 9.18657V8.77452C44.6233 8.77958 44.6383 8.77866 44.6529 8.77222C44.6501 8.91444 44.6477 9.05667 44.6449 9.19936Z" fill="#23221B"/>
<path d="M57.652 26.5794C57.761 26.5881 57.8779 26.5316 57.9768 26.6193H57.6562C57.6424 26.612 57.6374 26.6032 57.6405 26.5941C57.6442 26.5845 57.6479 26.5794 57.652 26.5794Z" fill="#23221B"/>
<path d="M58.8931 26.6192C58.9929 26.5334 59.1093 26.5857 59.2187 26.5807C59.2297 26.5908 59.2324 26.5999 59.2275 26.6077C59.2229 26.6151 59.2183 26.6188 59.2137 26.6188L58.8931 26.6192Z" fill="#23221B"/>
<path d="M57.652 26.5795C57.6543 26.5928 57.6557 26.6061 57.6561 26.6194H57.3813C57.4606 26.5327 57.5614 26.5869 57.652 26.5795Z" fill="#23221B"/>
<path d="M59.2129 26.6178C59.2143 26.605 59.2161 26.5922 59.2179 26.5793C59.3091 26.5843 59.4081 26.5306 59.4878 26.6178H59.2129Z" fill="#23221B"/>
<path d="M128.733 16.1189C128.733 17.8184 128.726 19.5173 128.736 21.2167C128.741 22.0848 128.778 22.9529 128.799 23.8209C128.811 24.3853 128.775 24.9478 128.715 25.5084C128.685 25.7956 128.56 25.9544 128.28 25.9865C127.598 26.0645 126.913 26.0948 126.226 26.0823C126.026 26.0787 125.929 25.9452 125.907 25.757C125.851 25.2877 125.84 24.816 125.823 24.3444C125.73 21.6554 125.758 18.9645 125.727 16.275C125.718 15.5583 125.758 14.8426 125.74 14.1264C125.738 14.0424 125.774 13.9245 125.646 13.8988C125.508 13.8713 125.518 14.0015 125.49 14.0786C125.139 15.0435 124.992 16.0547 124.825 17.06C124.424 19.4632 124.147 21.8847 123.719 24.2838C123.632 24.778 123.518 25.268 123.4 25.7561C123.312 26.1218 123.139 26.2172 122.767 26.1929C122.288 26.1617 121.809 26.1484 121.328 26.1361C120.893 26.125 120.722 25.9851 120.653 25.5561C120.482 24.5008 120.459 23.4332 120.384 22.3702C120.279 20.8974 120.255 19.4164 119.967 17.962C119.77 16.9609 119.464 15.9864 119.21 14.9986C119.207 14.9839 119.201 14.9692 119.196 14.9554C119.135 14.804 119.046 14.604 118.897 14.6228C118.778 14.638 118.847 14.8618 118.847 14.9899C118.853 16.3236 118.866 17.6573 118.878 18.9911C118.896 21.0108 118.916 23.0304 118.936 25.0501C118.939 25.2551 118.972 25.4584 118.939 25.6649C118.909 25.8429 118.821 25.9438 118.64 25.947C117.931 25.9594 117.222 25.9805 116.513 25.9741C116.131 25.9704 115.946 25.7584 115.942 25.3758C115.922 23.8594 115.902 22.3427 115.889 20.8263C115.866 18.3951 115.847 15.9639 115.831 13.5322C115.821 12.1223 115.923 10.7156 115.994 9.30887C116.013 8.96297 116.223 8.77115 116.567 8.75653C117.498 8.7166 118.428 8.73997 119.357 8.78265C119.971 8.81108 120.285 9.08045 120.423 9.68146C120.953 11.9956 121.463 14.3145 122.035 16.6186C122.078 16.7888 122.129 16.9554 122.218 17.1091C122.277 17.2095 122.328 17.2237 122.395 17.1173C122.491 16.9678 122.553 16.8053 122.598 16.6351C123.247 14.2723 123.894 11.9094 124.544 9.54705C124.698 8.98311 124.809 8.91071 125.396 8.9166C126.335 8.92626 127.271 8.91071 128.208 8.85561C128.683 8.82764 128.823 8.94825 128.811 9.42359C128.771 11.0762 128.719 12.7279 128.679 14.3806C128.666 14.9596 128.677 15.5394 128.677 16.1189H128.733Z" fill="#23221B"/>
<path d="M141.561 19.1899C141.561 17.1844 141.565 15.179 141.56 13.1736C141.557 11.9692 141.542 10.7653 141.534 9.56095C141.532 9.17328 141.408 8.81403 141.293 8.4511C141.159 8.02948 141.224 7.93629 141.657 7.89222C142.137 7.84319 142.618 7.86794 143.098 7.87162C143.397 7.87392 143.622 8.01936 143.74 8.30382C143.82 8.49333 143.897 8.68367 143.971 8.87503C144.023 9.01127 144.084 9.03832 144.198 8.92599C144.355 8.77088 144.514 8.61486 144.688 8.47999C146.007 7.46049 148.655 7.41375 149.862 9.18515C150.275 9.78984 150.406 10.463 150.418 11.1769C150.44 12.4395 150.254 13.6824 150.075 14.9267C149.851 16.4715 149.629 18.0163 149.41 19.5611C149.262 20.6012 149.117 21.6418 148.972 22.6823C148.942 22.8934 148.926 23.1049 148.947 23.3191C148.989 23.7486 149.247 24.0363 149.681 24.0513C150.458 24.0789 151.235 24.0986 152.012 24.0707C152.744 24.0441 153.477 24.0642 154.209 24.0477C156.183 24.0032 158.157 23.9509 160.13 23.8995C161.167 23.8724 162.203 23.8417 163.239 23.8123C164.367 23.7807 165.495 23.7449 166.622 23.7192C167.095 23.7082 167.25 23.8513 167.31 24.3207C167.357 24.6983 167.412 25.0759 167.439 25.4548C167.477 25.9866 167.224 26.2573 166.692 26.2692C165.96 26.2862 165.228 26.295 164.496 26.3045C162.979 26.3248 161.462 26.3284 159.945 26.367C158.793 26.3963 157.641 26.3812 156.49 26.394C154.698 26.4133 152.905 26.4266 151.112 26.4243C150.167 26.4229 149.222 26.3913 148.278 26.3592C147.542 26.3344 147.012 25.9674 146.669 25.3246C146.307 24.6437 146.21 23.9064 146.268 23.1521C146.451 20.7824 146.776 18.4278 147.037 16.0659C147.176 14.8092 147.33 13.5543 147.468 12.2981C147.51 11.9045 147.518 11.5082 147.447 11.1136C147.338 10.502 147.048 10.2322 146.429 10.2148C145.884 10.1996 145.349 10.2896 144.835 10.4712C144.466 10.602 144.26 10.8786 144.19 11.2622C144.147 11.5036 144.141 11.7472 144.138 11.9908C144.136 12.2578 144.138 12.5243 144.138 12.7914C144.132 15.1317 144.126 17.4721 144.118 19.813C144.11 21.7647 144.101 23.716 144.091 25.6677C144.091 25.7663 144.084 25.8655 144.072 25.9637C144.023 26.3675 143.855 26.5312 143.448 26.5427C143.036 26.5541 142.624 26.5528 142.212 26.5432C141.822 26.534 141.617 26.3312 141.577 25.9366C141.566 25.8307 141.564 25.7238 141.564 25.6169C141.563 23.4742 141.563 21.3316 141.563 19.189L141.561 19.1899Z" fill="#23221B"/>
<path d="M172.695 11.7525C172.644 11.1042 172.698 10.4577 172.722 9.81079C172.74 9.36847 172.904 9.21622 173.339 9.18227C173.863 9.14143 174.388 9.1015 174.914 9.10288C175.304 9.1038 175.459 9.24327 175.466 9.63784C175.479 10.56 175.533 11.4794 175.597 12.3994C175.704 13.9189 175.807 15.439 175.907 16.9585C175.947 17.5664 175.975 18.1752 176.01 18.7832C176.015 18.8667 176.031 18.9493 176.039 19.0324C176.121 19.8866 176.483 20.0435 177.287 20.1178C177.498 20.1371 177.712 20.1284 177.925 20.0876C178.741 19.9324 179.079 19.5554 179.118 18.7208C179.147 18.1179 179.067 17.5187 179.03 16.9186C178.968 15.9303 178.881 14.9439 178.82 13.9556C178.735 12.6255 178.62 11.2964 178.62 9.96176C178.62 9.78651 178.628 9.61217 178.656 9.43775C178.695 9.20288 178.824 9.07353 179.059 9.04005C179.462 8.98264 179.867 9.01521 180.27 8.99828C180.484 8.98908 180.697 8.99414 180.911 8.99736C181.21 9.0015 181.311 9.08908 181.332 9.38687C181.381 10.1012 181.429 10.8151 181.502 11.5276C181.623 12.7173 181.736 13.9075 181.847 15.098C181.921 15.8945 181.973 16.6929 181.98 17.4931C181.992 18.8565 181.987 20.2201 182.008 21.5837C182.013 21.987 182.019 22.3908 182.029 22.7946C182.041 23.301 181.953 23.7984 181.851 24.287C181.619 25.3812 180.834 26.0676 179.679 26.2521C178.811 26.3906 177.938 26.4319 177.061 26.4594C175.885 26.4966 174.713 26.4557 173.539 26.4282C173.234 26.4209 172.929 26.4063 172.625 26.3819C172.113 26.3407 171.653 26.1567 171.232 25.8593C169.996 24.9867 169.086 23.8809 168.713 22.3857C168.619 22.0095 168.526 21.6324 168.44 21.2544C168.339 20.818 168.471 20.5886 168.904 20.4629C169.498 20.2903 170.108 20.2702 170.718 20.3092C171.074 20.3316 171.301 20.6042 171.347 21.0107C171.461 22.026 171.874 22.8789 172.705 23.5043C173.282 23.9379 173.942 24.1889 174.631 24.371C175.97 24.7252 177.303 24.6678 178.626 24.2843C179.034 24.1659 179.198 23.9484 179.221 23.5235C179.251 22.9345 179.186 22.3532 179.082 21.7746C179.06 21.6617 179.033 21.5397 178.881 21.6227C178.34 21.92 177.753 21.9567 177.153 21.9692C176.528 21.9824 175.903 22.0068 175.288 21.8728C174.037 21.6012 173.316 20.7703 173.172 19.5012C172.931 17.3576 172.793 15.2077 172.699 13.054C172.679 12.621 172.696 12.1861 172.696 11.752L172.695 11.7525Z" fill="#23221B"/>
<path d="M155.225 11.8115C155.225 12.9997 155.225 14.1885 155.225 15.3768C155.225 15.3997 155.227 15.4227 155.228 15.4452C155.242 15.7732 155.332 15.927 155.532 15.9701C155.725 16.0113 155.937 15.8811 156.066 15.6209C156.323 15.0984 156.457 14.535 156.6 13.9742C156.964 12.5442 157.226 11.0893 157.651 9.67386C157.727 9.41875 157.808 9.16466 157.953 8.93706C158.157 8.61728 158.437 8.44387 158.827 8.45251C159.292 8.46309 159.756 8.41038 160.222 8.44755C160.282 8.45251 160.344 8.45573 160.403 8.46631C160.941 8.56447 161.068 8.81544 160.823 9.30459C160.4 10.1506 160.215 11.0705 159.985 11.9771C159.677 13.1856 159.443 14.4133 159.034 15.5957C158.929 15.9007 158.78 16.1816 158.574 16.4307C158.305 16.7556 158.265 17.1075 158.482 17.4676C158.885 18.1319 159.28 18.8 159.658 19.4795C159.797 19.7319 160.042 19.807 160.309 19.8433C161.158 19.9589 162.013 19.9314 162.866 19.9139C163.742 19.8961 164.617 19.8465 165.489 19.7552C165.701 19.7331 165.913 19.7052 166.126 19.6933C166.476 19.6731 166.628 19.7672 166.775 20.0824C166.955 20.4682 167.015 20.8678 166.895 21.2821C166.785 21.6648 166.516 21.884 166.116 21.9112C164.557 22.0176 162.994 22.0639 161.432 22.0309C160.595 22.013 159.758 21.9643 158.937 21.7685C158.558 21.678 158.276 21.4813 158.063 21.1592C157.638 20.5169 157.246 19.8557 156.881 19.1785C156.635 18.7229 156.261 18.4614 155.744 18.3981C155.335 18.3476 155.161 18.4683 155.09 18.8725C155.035 19.1895 155.058 19.5112 155.052 19.8305C155.041 20.3333 155.053 20.8366 155.047 21.34C155.041 21.9565 154.857 22.1488 154.253 22.2369C153.825 22.2993 153.401 22.2562 152.974 22.2397C152.816 22.2337 152.732 22.13 152.669 22.0006C152.54 21.7386 152.539 21.4532 152.533 21.1738C152.503 19.8869 152.486 18.5995 152.458 17.3121C152.415 15.3172 152.373 13.3218 152.318 11.3274C152.301 10.7342 152.29 10.14 152.235 9.54773C152.191 9.07699 152.365 8.88379 152.834 8.81038C153.294 8.73835 153.756 8.6998 154.223 8.7205C154.834 8.74801 155.16 9.06641 155.169 9.68582C155.18 10.3942 155.171 11.103 155.171 11.812L155.225 11.8115Z" fill="#23221B"/>
<path d="M104.228 14.0535C104.228 16.4246 104.224 18.7952 104.23 21.1663C104.231 21.5379 104.219 21.9127 104.305 22.2812C104.372 22.5652 104.542 22.7354 104.829 22.7817C105.175 22.8378 105.524 22.8446 105.876 22.8382C106.783 22.8221 107.69 22.8029 108.591 22.9496C108.878 22.9965 109.028 23.1396 109.087 23.4291C109.191 23.9439 109.171 24.461 109.151 24.9781C109.141 25.2189 108.963 25.341 108.747 25.3828C108.517 25.4277 108.28 25.4616 108.045 25.4648C106.548 25.4846 105.057 25.4121 103.588 25.0987C102.513 24.8698 101.965 24.2 101.881 23.1052C101.762 21.5476 101.725 19.9862 101.64 18.4277C101.566 17.0811 101.526 15.7336 101.5 14.3857C101.482 13.4488 101.458 12.5119 101.434 11.5754C101.426 11.2781 101.344 11.1951 101.043 11.2024C99.8836 11.2309 98.7236 11.2208 97.5655 11.191C96.6664 11.168 95.7682 11.1185 94.87 11.0864C94.6642 11.079 94.4585 11.1006 94.2528 11.101C93.9571 11.1015 93.8368 10.9996 93.7872 10.7097C93.7137 10.2816 93.6687 9.84987 93.6476 9.41583C93.6301 9.06992 93.7201 8.95428 94.07 8.93183C94.4502 8.90745 94.8323 8.91711 95.2134 8.91297C97.098 8.89144 98.9808 8.87038 100.864 8.8483C101.656 8.83864 101.809 8.6529 101.682 7.87424C101.639 7.6114 101.595 7.34756 101.573 7.08233C101.545 6.74654 101.65 6.59144 101.973 6.51894C102.586 6.38132 103.214 6.35657 103.838 6.39962C104.275 6.43044 104.435 6.65795 104.398 7.09521C104.366 7.46734 104.333 7.83891 104.297 8.21012C104.26 8.59779 104.395 8.74554 104.787 8.73542C105.984 8.70469 107.18 8.68316 108.378 8.69006C109.193 8.69503 109.354 8.86394 109.312 9.68151C109.301 9.89531 109.28 10.1064 109.235 10.3156C109.164 10.645 108.957 10.8239 108.628 10.8831C108.326 10.9377 108.022 10.9451 107.717 10.9446C106.886 10.9432 106.053 10.9225 105.235 11.1102C105.228 11.1121 105.22 11.1121 105.213 11.1134C104.324 11.3185 104.194 11.4814 104.194 12.3834C104.194 12.9399 104.194 13.4969 104.194 14.0535H104.228Z" fill="#23221B"/>
<path d="M64.0545 25.1063C64.0133 24.6116 63.912 24.1281 63.8049 23.6454C63.7206 23.2669 63.6125 23.1949 63.2277 23.2376C63.1219 23.249 63.018 23.2756 62.914 23.2976C61.7304 23.55 60.5529 23.8363 59.3428 23.939C58.1381 24.0413 56.9381 24.0482 55.7559 23.7386C54.1326 23.3137 53.0165 22.3612 52.5744 20.7008C52.514 20.4732 52.4384 20.2489 52.3647 20.0249C52.2428 19.6547 52.2414 19.6566 52.5832 19.4858C53.5922 18.9826 54.2591 18.2035 54.4702 17.0813C54.849 15.0681 54.9227 13.0419 54.6219 11.0141C54.4216 9.66566 53.5033 8.75029 52.1686 8.48875C51.619 8.38093 51.0611 8.38921 50.5065 8.37366C49.5386 8.34698 48.5704 8.36538 47.6021 8.38829C46.8706 8.40577 46.1382 8.40209 45.4062 8.41809C45.109 8.42453 44.7998 8.43281 44.6532 8.77237C44.6098 8.9077 44.6437 9.04671 44.6327 9.18387C44.6483 9.57155 44.6707 9.95922 44.6757 10.3465C44.7041 12.6937 44.6331 15.0415 44.7229 17.3882C44.7421 17.8902 44.7426 18.393 44.7573 18.8954C44.7944 20.1512 44.8484 21.406 44.9016 22.6613C44.9469 23.7266 44.9973 24.7906 45.0893 25.8527C45.1264 26.2831 45.2927 26.4459 45.7324 26.4547C46.2816 26.4657 46.8308 26.4597 47.3799 26.4565C47.4642 26.4561 47.5472 26.4441 47.6295 26.4281C48.0729 26.3423 48.2392 26.1423 48.2484 25.6907C48.258 25.2255 48.214 24.7617 48.208 24.2978C48.1921 22.9792 48.2021 21.6602 48.2025 20.3411C48.2025 20.2571 48.2025 20.1736 48.2136 20.0902C48.235 19.93 48.3276 19.8337 48.4865 19.8374C49.005 19.8497 49.4699 19.9754 49.7438 20.4751C50.173 21.2578 50.5825 22.0465 50.8504 22.9054C51.1921 24 51.9016 24.8177 52.8662 25.421C53.7997 26.005 54.8289 26.3198 55.908 26.4992C56.3522 26.5731 56.8016 26.5588 57.2454 26.6184H57.3829C57.4726 26.5689 57.5692 26.607 57.6623 26.5951C57.7671 26.607 57.8762 26.5685 57.9783 26.6184H58.8938C58.996 26.5685 59.105 26.6066 59.2103 26.5951C59.3029 26.607 59.3995 26.5689 59.4893 26.6184H59.6267C59.864 26.5341 60.114 26.5505 60.3586 26.5286C61.3764 26.4363 62.3864 26.2931 63.3812 26.0592C63.896 25.938 64.0994 25.6302 64.0554 25.1058L64.0545 25.1063ZM51.5782 16.2371C51.52 16.7289 51.1843 17.0675 50.6966 17.1488C49.966 17.2707 49.2277 17.3001 48.4897 17.3291C48.1888 17.3409 48.0532 17.2194 48.0377 16.9138C48.0006 16.1692 48.0006 15.4218 47.9406 14.6795C47.8471 13.5182 47.8696 12.3561 47.8659 11.1939C47.865 10.864 47.8664 10.8681 48.193 10.8232C48.8992 10.7268 49.6032 10.6966 50.3022 10.8787C50.3168 10.8824 50.332 10.8852 50.3466 10.8888C51.3181 11.159 51.5888 11.5082 51.6043 12.5377C51.613 13.1089 51.6057 13.6802 51.6057 14.2514C51.6025 14.913 51.6561 15.5778 51.5782 16.2371Z" fill="#23221B"/>
<path d="M139.575 16.5334C139.561 15.6034 139.573 14.6734 139.573 13.7434C139.573 12.8134 139.573 11.8073 139.573 10.8387C139.573 10.3267 139.438 9.85456 139.11 9.45861C138.512 8.73781 137.753 8.30064 136.814 8.17626C135.792 8.04094 134.776 8.0827 133.757 8.18822C133.168 8.24922 132.601 8.3781 132.11 8.73965C131.452 9.22512 131.15 9.91693 130.953 10.6786C130.75 11.465 130.778 12.2619 130.798 13.0626C130.827 14.2582 130.833 15.4548 130.847 16.6509C130.863 18.0984 130.872 19.5464 130.894 20.9939C130.906 21.7477 130.935 22.5015 130.966 23.2549C130.989 23.8032 131.115 24.3266 131.434 24.7845C131.958 25.5343 132.725 25.9049 133.581 26.1128C134.752 26.3972 135.923 26.3275 137.094 26.0857C138.369 25.8228 139.115 25.0369 139.408 23.7903C139.52 23.3109 139.503 22.8195 139.505 22.3345C139.518 20.4007 139.606 18.4682 139.575 16.5334ZM136.78 13.8118H136.72C136.72 15.5483 136.729 17.2849 136.716 19.0215C136.708 20.186 136.669 21.3504 136.642 22.5153C136.624 23.3242 136.213 23.7444 135.403 23.7908C135.053 23.811 134.705 23.8449 134.355 23.7894C133.932 23.7219 133.67 23.4903 133.563 23.0741C133.444 22.6047 133.418 22.1263 133.425 21.6459C133.457 19.2775 133.492 16.9096 133.53 14.5417C133.547 13.514 133.573 12.4868 133.594 11.459C133.605 10.9199 133.814 10.6689 134.351 10.6185C134.961 10.5612 135.57 10.6052 136.174 10.7025C136.427 10.7432 136.593 10.9089 136.679 11.1498C136.756 11.3673 136.781 11.593 136.781 11.8237C136.778 12.4868 136.78 13.1492 136.78 13.8118Z" fill="#23221B"/>
<path d="M75.1655 16.2082C75.1691 15.3572 75.0129 14.5465 74.6058 13.7876C73.8532 12.3841 72.421 11.7284 70.915 12.1189C70.309 12.2763 69.7791 12.5924 69.2624 12.9338C69.0261 13.0902 68.9931 13.0751 68.9844 12.7851C68.9642 12.1226 68.9519 11.4601 68.939 10.7975C68.9285 10.2489 68.923 9.70055 68.9134 9.15179C68.9102 8.95961 68.8621 8.77746 68.7906 8.59807C68.7155 8.40855 68.5923 8.33238 68.3853 8.34572C67.8521 8.38013 67.324 8.4494 66.7996 8.54894C66.4276 8.61959 66.254 8.85271 66.2729 9.23165C66.3713 11.2087 66.4877 13.1852 66.5605 15.163C66.6315 17.0887 66.6626 19.0161 66.7016 20.9431C66.729 22.291 66.7355 23.6395 66.8134 24.9856C66.8344 25.3467 66.9653 25.5293 67.2714 25.6124C67.6835 25.7239 67.9561 25.6408 68.1507 25.3284C68.2717 25.1347 68.3711 24.9283 68.4897 24.7328C68.7032 24.3814 68.8809 24.3548 69.174 24.6402C69.7662 25.2164 70.4593 25.588 71.2859 25.6821C72.1608 25.7817 72.9972 25.689 73.7002 25.0921C74.3103 24.5737 74.6095 23.8817 74.7345 23.1096C75.0542 21.1423 75.1343 19.157 75.1655 17.168C75.1655 16.8478 75.1646 16.5275 75.1655 16.2073V16.2082ZM72.1658 21.8929C72.1507 22.7508 71.4866 23.3738 70.6305 23.3771C69.8038 23.3798 69.174 22.7875 69.1552 21.9245C69.13 20.7977 69.1451 19.6695 69.1515 18.5422C69.1557 17.7805 69.1662 17.019 69.1305 16.2578C69.0782 15.1493 69.8052 14.3354 70.8398 14.3565C71.6482 14.3731 72.1681 14.8947 72.1704 15.6998C72.1737 16.7207 72.1714 17.7411 72.1709 18.7619C72.1709 19.8057 72.1846 20.8495 72.1658 21.8929Z" fill="#23221B"/>
<path d="M86.71 10.3952C86.4988 9.28307 85.5271 8.40036 84.3111 8.17598C83.6104 8.04654 82.9142 8.12869 82.2144 8.15942C81.2105 8.20395 80.2034 8.20119 79.2068 8.36181C77.7814 8.59162 76.7984 9.52805 76.4994 10.9421C76.3565 11.6179 76.4554 12.2951 76.4893 12.9691C76.5909 14.9764 76.7142 16.9827 76.836 18.9895C76.9065 20.1521 76.9482 21.3166 77.065 22.4765C77.1992 23.812 77.9307 24.653 79.1894 25.049C80.2071 25.3688 81.2556 25.5 82.387 25.4876C82.9794 25.4921 83.6315 25.4371 84.2808 25.3394C85.3563 25.177 86.0901 24.5956 86.4703 23.573C86.6338 23.133 86.7183 22.6756 86.7284 22.2099C86.7587 20.816 86.789 19.4217 86.7917 18.0279C86.7972 15.9477 86.7871 13.867 86.7633 11.7868C86.7587 11.3238 86.7963 10.854 86.71 10.3952ZM83.9529 21.7942C83.8795 22.5943 83.5617 22.9367 82.7691 22.9885C82.084 23.0334 81.3979 23.0036 80.7266 22.8293C79.9245 22.6206 79.4848 22.0901 79.4518 21.2574C79.4188 20.4205 79.4028 19.5827 79.3881 18.7455C79.3748 17.9838 79.4344 17.2158 79.3543 16.462C79.1899 14.9168 79.324 13.3724 79.2791 11.8285C79.2581 11.116 79.4028 10.6668 80.3422 10.6246C81.0498 10.5929 81.7552 10.5136 82.4642 10.5081C82.5854 10.5072 82.7085 10.5081 82.8288 10.5264C83.592 10.643 83.9309 11.0027 83.9401 11.7826C83.9557 13.2076 83.9447 14.6328 83.9447 16.0578C83.9483 16.0578 83.9529 16.0578 83.9575 16.0578C83.9575 17.3916 83.9557 18.7252 83.9575 20.059C83.9584 20.6371 84.0062 21.2157 83.9529 21.7942Z" fill="#23221B"/>
<path d="M99.6025 15.4372C99.586 15.0945 99.4785 14.7811 99.2948 14.4929C98.6483 13.4832 97.6959 13.0092 96.5267 12.9913C95.5679 12.9767 94.6082 13.0367 93.6485 13.0596C92.8788 13.078 92.1092 13.0725 91.3432 13.1652C90.5479 13.2616 89.8067 13.4932 89.2144 14.064C88.4438 14.8073 88.2078 15.7464 88.2757 16.7769C88.3933 18.547 88.5788 20.3115 88.7561 22.0761C88.8057 22.5689 88.8635 23.0616 89.0876 23.5144C89.578 24.5087 90.4331 24.9991 91.4782 25.1946C93.1525 25.5071 94.8424 25.5186 96.535 25.4157C97.2532 25.3722 97.9282 25.1643 98.4912 24.683C99.226 24.054 99.4969 23.2185 99.5483 22.2895C99.6282 20.8671 99.6392 19.443 99.6512 18.0189C99.6512 17.1582 99.6448 16.2975 99.6034 15.4372H99.6025ZM96.8886 16.6021C96.8004 17.583 96.8647 18.5672 96.8225 19.549C96.7894 20.3102 96.8408 21.0727 96.7655 21.8329C96.6911 22.5817 96.2861 22.9662 95.533 23.0057C94.5118 23.0598 93.4914 23.0928 92.471 23.0015C92.2672 22.9831 92.0614 22.9561 91.8612 22.912C91.5113 22.8349 91.3047 22.6102 91.2578 22.2528C91.1605 21.5108 91.1697 20.7634 91.1531 20.146C91.1531 19.5825 91.1862 19.1452 91.1458 18.7144C91.0751 17.9689 91.1228 17.2238 91.11 16.4791C91.0999 15.88 91.301 15.6395 91.886 15.5051C92.5115 15.361 93.1442 15.4074 93.7761 15.434C94.5981 15.4688 95.421 15.4908 96.2439 15.5294C96.6204 15.5469 96.7802 15.706 96.8611 16.0791C96.8996 16.2534 96.9042 16.4277 96.8886 16.6021Z" fill="#23221B"/>
<path d="M64.5426 18.82C64.5229 18.4439 64.3919 18.3089 64.0168 18.3204C63.6055 18.3328 63.1947 18.358 62.7838 18.3842C62.5182 18.4012 62.3391 18.5443 62.273 18.8008C62.089 19.5133 61.5723 19.8248 60.8995 19.9262C59.8734 20.0813 59.1759 19.5533 59.0265 18.5301C58.9881 18.2663 58.9712 17.9983 58.912 17.7395C58.8645 17.5308 58.9496 17.4822 59.1273 17.4744C59.4397 17.4606 59.7521 17.4478 60.0631 17.4198C60.8372 17.3496 61.6158 17.328 62.383 17.1923C63.3756 17.0165 63.8002 16.5549 63.9348 15.5575C64.0461 14.7316 64.058 13.9035 64.0388 13.0736C64.0177 12.1587 63.9513 11.2475 63.7525 10.3515C63.4502 8.98837 62.3248 8.14319 60.9297 8.23408C60.3292 8.27309 59.7296 8.32995 59.1287 8.36389C58.5227 8.39784 57.9937 8.57263 57.615 9.08147C57.3859 9.38929 57.2013 9.72011 57.0588 10.0752C56.3993 11.7196 56.1786 13.4401 56.1749 15.1973C56.1708 16.6269 56.3284 18.0415 56.6169 19.4395C56.9242 20.9292 57.9727 21.8257 59.4956 21.9106C60.2958 21.9551 61.0936 21.8766 61.8929 21.8248C63.5895 21.7151 64.6136 20.1795 64.5426 18.82ZM58.6954 15.7599C58.6441 14.377 58.4833 12.9956 58.6176 11.6095C58.6322 11.4581 58.6524 11.3071 58.6794 11.1576C58.7573 10.7226 59.0201 10.457 59.442 10.3404C60.1181 10.1537 60.7409 10.1899 61.2379 10.7639C61.4028 10.9543 61.4981 11.1645 61.5068 11.4242C61.526 11.9949 61.5649 12.5647 61.5535 13.0859C61.5599 13.8672 61.543 14.5958 61.411 15.3194C61.3446 15.6832 61.1623 15.8709 60.7868 15.9278C60.2207 16.0131 59.6518 16.0534 59.0825 16.0924C58.8154 16.1108 58.705 16.019 58.6954 15.7599Z" fill="#23221B"/>
<path d="M170.311 14.5022C169.795 14.4407 169.277 14.4169 168.759 14.4554C168.516 14.4733 168.343 14.5954 168.275 14.8399C168.208 15.0821 168.043 15.2464 167.841 15.379C167.404 15.6662 166.924 15.7814 166.405 15.7263C165.64 15.645 165.138 15.2363 164.996 14.566C164.94 14.304 164.949 14.0356 164.949 13.769C164.948 13.3726 164.95 13.3611 165.358 13.3703C166.409 13.3942 167.461 13.3974 168.512 13.3447C169.509 13.2942 170.305 12.6477 170.521 11.709C170.821 10.4055 169.845 8.87132 168.536 8.59091C168.102 8.49781 167.66 8.47491 167.218 8.46019C166.382 8.43268 165.546 8.36709 164.713 8.54188C163.44 8.80931 162.591 9.69616 162.446 10.9882C162.368 11.6842 162.367 12.3871 162.375 13.1771C162.35 13.6598 162.392 14.2306 162.422 14.8013C162.491 16.1598 163.208 17.0499 164.463 17.2738C165.789 17.5105 167.128 17.5712 168.468 17.3734C169.711 17.1898 170.641 16.1039 170.617 14.883C170.613 14.6651 170.529 14.5279 170.311 14.5022ZM165.794 10.4083C166.263 10.2133 166.747 10.1371 167.244 10.2913C167.73 10.4418 168.034 10.8189 168.008 11.2254C167.982 11.636 167.611 11.9861 167.115 12.0682C166.773 12.1247 166.429 12.0733 166.079 12.1058C165.82 12.1058 165.552 12.1137 165.285 12.1035C164.991 12.0926 164.925 12.0169 164.923 11.7274C164.919 11.0983 165.211 10.6496 165.793 10.4074L165.794 10.4083Z" fill="#23221B"/>
</g>
</g>
<defs>
<clipPath id="clip0_221_332">
<rect width="182" height="33" fill="white"/>
</clipPath>
</defs>
</svg>
