<svg width="37" height="33" viewBox="0 0 37 33" fill="none" xmlns="http://www.w3.org/2000/svg">
<path d="M12.8072 32.622C10.0388 32.5359 5.03269 32.2883 4.01378 32.1874C2.34417 32.0216 1.15481 31.335 0.626331 30.233C0.258107 29.4646 0.173957 28.8695 0.057111 26.2101C-0.0125675 24.6234 -0.0189994 18.6041 0.0469272 17.2588C0.0892706 16.4006 0.0962382 16.3661 0.263467 16.2003C0.433911 16.0313 0.449455 16.0287 1.41102 15.9978C2.18498 15.9729 2.39778 15.9473 2.44494 15.8735C2.4771 15.8219 2.48943 15.5557 2.47174 15.2821C2.38759 13.9856 2.33667 11.672 2.38009 11.1343C2.44172 10.3707 2.57519 9.97807 2.89571 9.61671C3.23231 9.2373 3.68629 8.98706 4.2657 8.86113C4.52458 8.80483 4.77221 8.73095 4.81508 8.69694C4.87458 8.65021 4.89334 8.1943 4.89334 6.80317C4.89334 4.69526 4.94479 4.31109 5.33553 3.50501C5.5124 3.13996 5.67052 2.91838 5.90314 2.71116C6.31692 2.34239 7.01263 2.0071 7.52774 1.92793C8.15754 1.83122 12.4454 1.90189 18.6179 2.11072C22.5949 2.24515 26.9482 2.30785 27.0404 2.23187C27.1074 2.17661 27.1294 1.97629 27.1299 1.40401C27.1299 0.988483 27.1518 0.618125 27.1771 0.58093C27.2355 0.494849 28.3396 0.293463 28.4736 0.343943C28.5588 0.376356 28.5733 0.51876 28.5733 1.30571C28.5733 1.96088 28.5953 2.24303 28.6494 2.27597C28.6913 2.30148 29.2171 2.34398 29.8173 2.37055C31.0051 2.42316 31.1208 2.44228 31.2055 2.59904C31.2913 2.75844 31.1128 3.68142 30.9767 3.78079C30.8931 3.8419 30.6685 3.85252 30.0494 3.82489C29.6003 3.8047 29.1179 3.77441 28.9774 3.75741C28.5133 3.70161 28.5245 3.64263 28.4967 6.23992C28.4779 7.99503 28.4902 8.54549 28.5492 8.59384C28.6055 8.64011 28.7754 8.50886 29.1806 8.10554C29.4856 7.80209 29.91 7.44982 30.1234 7.32181C31.7614 6.34142 33.4197 6.7479 34.4113 8.37282C34.7131 8.86699 35.1874 10.163 35.3815 11.0211C35.6253 12.1003 35.6714 12.7268 35.6044 14.0212C35.5717 14.6461 35.5176 15.6923 35.4833 16.3464C35.449 17.0005 35.3772 17.8688 35.3236 18.2769C35.1998 19.2174 34.7216 21.5867 34.5088 22.312C34.1197 23.6404 33.3366 24.8615 32.4662 25.4949C32.0942 25.7658 31.3438 26.0629 30.8947 26.1171C30.1448 26.2074 29.2889 25.8966 28.635 25.2961C28.2083 24.9045 28.077 24.896 28.0604 25.259C28.0486 25.5209 28.0496 25.5087 27.9832 26.1171C27.8749 27.1118 27.5003 28.4445 27.1508 29.0815C26.9455 29.4556 26.5988 29.7675 26.1571 29.9742C25.5622 30.2532 24.9356 30.3249 22.7638 30.3632C21.658 30.3829 20.7115 30.4206 20.6594 30.4472C20.6075 30.4737 20.5121 30.6454 20.4472 30.8281C20.1572 31.6453 19.5119 32.2373 18.5868 32.5343C18.2909 32.6294 17.9666 32.647 16.3254 32.6586C15.2717 32.6661 13.6889 32.6496 12.8083 32.6225L12.8072 32.622ZM17.7731 31.2899C18.4131 31.1767 18.7385 31.0024 18.962 30.6533C19.1866 30.3021 19.2766 29.9014 19.2766 29.2521C19.2766 28.7649 19.2825 28.7447 19.4899 28.539C19.6619 28.3684 19.7526 28.3276 19.9562 28.3276C20.2794 28.3276 20.5683 28.5576 20.6578 28.886C20.6932 29.0167 20.7575 29.1357 20.8004 29.1501C20.8433 29.1644 21.7405 29.1576 22.7937 29.1352C25.665 29.0741 25.8676 29.0008 26.2369 27.8919C26.6545 26.6394 26.6754 26.4444 26.9766 21.0734C27.1085 18.7221 27.1669 3.903 27.0452 3.80523C26.9551 3.73349 25.4335 3.67876 22.3543 3.63732C21.093 3.62032 19.8356 3.59162 19.5591 3.57409C18.6811 3.51776 13.7559 3.35995 10.8599 3.29565C7.86644 3.22923 7.51274 3.2489 7.11233 3.50235C6.3271 4.00024 6.199 4.4843 6.11754 7.25642C6.08377 8.41639 6.09127 8.64698 6.16846 8.72348C6.2317 8.78624 6.60314 8.84732 7.38192 8.92221C7.99941 8.98174 8.92556 9.07528 9.44067 9.12949C10.5952 9.25171 10.5453 9.28727 10.5458 8.34306C10.5464 7.07149 10.7571 6.44503 11.374 5.8786C11.9539 5.34618 12.0869 5.3212 14.3144 5.32598C15.3333 5.32811 16.549 5.36265 17.0153 5.4025C19.8678 5.64746 19.9793 5.66074 20.2708 5.78827C20.9859 6.10071 21.4549 6.61826 21.7802 7.45461C22.1752 8.47007 22.2208 9.37711 22.105 13.9431C22.0718 15.2614 22.0305 17.4192 22.0139 18.7375C21.9796 21.4129 21.9351 21.795 21.5792 22.4374C21.2549 23.0235 20.749 23.3078 19.7413 23.4714C19.5376 23.5044 18.7304 23.5315 17.9473 23.532C17.1643 23.532 16.4787 23.5495 16.4241 23.5703C16.341 23.6016 16.3249 23.7324 16.3249 24.3668C16.3249 25.5066 16.1127 26.1351 15.4475 26.9646C15.0487 27.4614 14.6698 27.7707 14.1413 28.0284L13.7297 28.2292L12.5456 28.2548C11.218 28.2829 9.82118 28.2053 7.68855 27.9848C6.89417 27.9024 5.62228 27.8042 4.86225 27.7659C4.10222 27.7277 3.08491 27.6735 2.60091 27.6448C1.98184 27.6086 1.69616 27.6134 1.63667 27.6617C1.52143 27.7547 1.59808 28.7798 1.75941 29.2973C1.96523 29.9583 2.56661 30.4668 3.51209 30.7782C3.92481 30.9142 4.16653 30.9419 5.45934 31.0013C6.27136 31.0386 7.51483 31.097 8.22288 31.1305C12.5794 31.3383 17.0753 31.4131 17.7742 31.2894L17.7731 31.2899ZM13.5613 26.708C13.861 26.5565 14.4216 25.9508 14.6601 25.5219L14.8488 25.1829L14.8691 22.5054C14.8804 21.033 14.8702 19.3157 14.8467 18.6903C14.8075 17.6562 14.7925 17.5468 14.6832 17.4883C14.6167 17.4533 13.9344 17.4075 13.1668 17.3873L11.7712 17.3502L10.7903 18.3321L9.80942 19.3141L8.59217 19.2705C7.16483 19.219 6.13737 19.1015 5.82488 18.9538C5.67695 18.8837 5.4245 18.6206 5.07504 18.1722C4.65054 17.627 4.50582 17.4846 4.3284 17.4368C4.0529 17.3624 1.54448 17.2147 1.41156 17.2656C1.32472 17.2986 1.31347 17.5999 1.31401 19.8736C1.31454 23.0756 1.41262 26.0884 1.51983 26.191C1.57128 26.2398 2.33828 26.2972 3.85727 26.3647C5.10077 26.4199 6.58492 26.5055 7.15468 26.5544C10.659 26.8562 11.2277 26.8886 12.4261 26.8525C13.1481 26.8307 13.3791 26.8015 13.5619 26.709L13.5613 26.708ZM31.4071 24.4332C32.0948 24.1946 32.5429 23.7185 32.9148 22.8312C33.2107 22.1255 33.6529 20.2663 33.8507 18.8953C34.0827 17.288 34.2521 14.4898 34.2071 13.0137C34.1771 12.0307 34.1508 11.8293 33.9498 11.0323C33.8265 10.5445 33.6829 10.0625 33.6304 9.96157C33.3206 9.36801 32.8194 8.83405 32.3317 8.57842C32.1173 8.46582 31.956 8.43498 31.5813 8.4339C31.1579 8.43283 31.055 8.45727 30.6738 8.65021C30.3281 8.8255 30.1352 8.98867 29.6882 9.48283C28.852 10.4074 28.6098 10.9861 28.546 12.2055C28.5155 12.7916 28.4484 15.9272 28.4136 18.3958C28.4093 18.7041 28.3846 19.6568 28.3584 20.5128L28.3112 22.0697L28.5353 22.524C28.8226 23.1069 29.0675 23.4571 29.4587 23.845C30.0735 24.4545 30.7548 24.6601 31.4071 24.4343V24.4332ZM18.7829 22.1037C19.3232 22.074 19.8249 22.0181 19.8978 21.9794C20.124 21.8593 20.2687 21.4778 20.3389 20.8189C20.3748 20.4788 20.4333 18.6456 20.4681 16.7449C20.5029 14.8443 20.5458 12.925 20.5629 12.4797C20.6745 9.5827 20.675 9.31225 20.5699 8.71445C20.4403 7.97745 20.2108 7.50087 19.8737 7.26759C19.6341 7.1018 19.5553 7.08799 18.1467 6.96205C17.0496 6.86375 16.1437 6.82761 14.6188 6.82123L12.5671 6.81273L12.3967 6.96842C12.029 7.30423 12.0247 7.33824 12.0155 9.98865C12.0081 12.1487 11.9174 14.9649 11.8333 15.6551C11.7813 16.0839 11.7374 16.0728 13.5067 16.0898C15.224 16.1063 15.619 16.1604 15.8141 16.4059C15.9572 16.5866 16.0376 17.4027 16.17 20.0298C16.2231 21.083 16.2782 21.9778 16.2928 22.0192C16.3179 22.0904 16.6282 22.125 17.4558 22.1478C17.6455 22.1531 18.2427 22.133 18.7829 22.1037ZM9.90858 17.3677L10.4724 16.7449L10.5078 16.2933C10.5764 15.4197 10.6156 10.8617 10.555 10.7735C10.5196 10.7214 10.3481 10.6773 10.1284 10.6625C9.60255 10.6279 8.0819 10.4749 7.09142 10.3569C6.62511 10.3011 5.86187 10.2517 5.39556 10.2469C4.62641 10.2384 4.52297 10.2506 4.28285 10.3782C3.99127 10.5322 3.92481 10.6252 3.8637 10.9622C3.81439 11.2321 3.8026 15.8485 3.85084 15.9256C3.86906 15.9548 4.09578 15.9952 4.3536 16.0143C4.61195 16.0335 4.86868 16.0749 4.92443 16.1057C4.98017 16.1365 5.38108 16.5521 5.81577 17.0292L6.60528 17.8964L7.71208 17.9298C8.32097 17.948 8.93739 17.9692 9.08207 17.9766C9.34097 17.9899 9.35435 17.9803 9.90912 17.3672L9.90858 17.3677Z" fill="#F7E001" stroke="#F7E001"/>
</svg>
