<svg width="13" height="13" viewBox="0 0 13 13" fill="none" xmlns="http://www.w3.org/2000/svg">
<path d="M8.33895 9.87425C8.45052 9.98582 8.5132 10.1371 8.5132 10.2949C8.5132 10.4527 8.45052 10.604 8.33895 10.7156C8.22738 10.8272 8.07605 10.8899 7.91826 10.8899C7.76048 10.8899 7.60915 10.8272 7.49758 10.7156L3.53821 6.75625C3.48284 6.70107 3.43891 6.63551 3.40893 6.56332C3.37896 6.49113 3.36353 6.41373 3.36353 6.33556C3.36353 6.25739 3.37896 6.18 3.40893 6.10781C3.43891 6.03562 3.48284 5.97005 3.53821 5.91488L7.49758 1.9555C7.60915 1.84393 7.76048 1.78125 7.91826 1.78125C8.07605 1.78125 8.22738 1.84393 8.33895 1.9555C8.45052 2.06708 8.5132 2.2184 8.5132 2.37619C8.5132 2.53397 8.45052 2.6853 8.33895 2.79687L4.80075 6.33507L8.33895 9.87425Z" fill="#0D0C0C"/>
</svg>
