<svg width="10" height="10" viewBox="0 0 10 10" fill="none" xmlns="http://www.w3.org/2000/svg">
<path d="M9.43513 8.02082L6.371 4.95669L9.43513 1.89256C9.82168 1.506 9.82168 0.864895 9.43513 0.478343C9.04858 0.0917913 8.40747 0.0917913 8.02092 0.478343L4.95679 3.54247L1.89266 0.478343C1.50611 0.0917913 0.864996 0.0917913 0.478444 0.478343C0.0918925 0.864895 0.0918924 1.506 0.478444 1.89256L3.54257 4.95669L0.478444 8.02082C0.0918921 8.40737 0.0918925 9.04848 0.478444 9.43503C0.864996 9.82158 1.50611 9.82158 1.89266 9.43503L4.95679 6.3709L8.02092 9.43503C8.40747 9.82158 9.04858 9.82158 9.43513 9.43503C9.82168 9.04848 9.82168 8.40737 9.43513 8.02082Z" fill="#0F0707"/>
</svg>
